<?xml version="1.0" encoding="UTF-8"?>
<svg xmlns="http://www.w3.org/2000/svg" xmlns:xlink="http://www.w3.org/1999/xlink" width="768pt" height="767.999994pt" viewBox="0 0 768 767.999994" version="1.2">
<defs>
<clipPath id="clip1">
  <path d="M 61 49 L 728.632812 49 L 728.632812 734 L 61 734 Z M 61 49 "/>
</clipPath>
<clipPath id="clip2">
  <path d="M 39.382812 335 L 56 335 L 56 373 L 39.382812 373 Z M 39.382812 335 "/>
</clipPath>
<clipPath id="clip3">
  <path d="M 359 28.265625 L 395 28.265625 L 395 48 L 359 48 Z M 359 28.265625 "/>
</clipPath>
<clipPath id="clip4">
  <path d="M 259.097656 303.488281 L 519.347656 303.488281 L 519.347656 328 L 259.097656 328 Z M 259.097656 303.488281 "/>
</clipPath>
<clipPath id="clip5">
  <path d="M 259.097656 327 L 519.347656 327 L 519.347656 351 L 259.097656 351 Z M 259.097656 327 "/>
</clipPath>
<clipPath id="clip6">
  <path d="M 259.097656 350 L 519.347656 350 L 519.347656 375 L 259.097656 375 Z M 259.097656 350 "/>
</clipPath>
<clipPath id="clip7">
  <path d="M 259.097656 374 L 519.347656 374 L 519.347656 399 L 259.097656 399 Z M 259.097656 374 "/>
</clipPath>
<clipPath id="clip8">
  <path d="M 259.097656 398 L 519.347656 398 L 519.347656 423 L 259.097656 423 Z M 259.097656 398 "/>
</clipPath>
<clipPath id="clip9">
  <path d="M 259.097656 422 L 519.347656 422 L 519.347656 446 L 259.097656 446 Z M 259.097656 422 "/>
</clipPath>
<clipPath id="clip10">
  <path d="M 259.097656 445 L 519.347656 445 L 519.347656 469.238281 L 259.097656 469.238281 Z M 259.097656 445 "/>
</clipPath>
<clipPath id="clip11">
  <path d="M 233.257812 202.859375 L 595.507812 202.859375 L 595.507812 565.109375 L 233.257812 565.109375 Z M 233.257812 202.859375 "/>
</clipPath>
</defs>
<g id="surface1">
<path style=" stroke:none;fill-rule:nonzero;fill:rgb(100%,100%,100%);fill-opacity:1;" d="M 414.394531 76.800781 C 409.253906 76.800781 404.113281 76.921875 398.976562 77.171875 C 393.839844 77.417969 388.714844 77.785156 383.597656 78.277344 C 378.480469 78.773438 373.375 79.386719 368.289062 80.125 C 363.203125 80.863281 358.136719 81.722656 353.09375 82.703125 C 348.050781 83.683594 343.035156 84.785156 338.046875 86.007812 C 333.058594 87.226562 328.101562 88.570312 323.179688 90.027344 C 318.261719 91.488281 313.378906 93.0625 308.539062 94.757812 C 303.695312 96.453125 298.898438 98.261719 294.148438 100.183594 C 289.398438 102.109375 284.695312 104.144531 280.046875 106.292969 C 275.398438 108.445312 270.808594 110.703125 266.273438 113.074219 C 261.738281 115.445312 257.265625 117.921875 252.851562 120.503906 C 248.441406 123.089844 244.097656 125.78125 239.824219 128.574219 C 235.546875 131.367188 231.34375 134.257812 227.214844 137.253906 C 223.082031 140.25 219.03125 143.339844 215.054688 146.53125 C 211.078125 149.71875 207.1875 153.003906 203.375 156.378906 C 199.566406 159.757812 195.84375 163.222656 192.207031 166.777344 C 188.570312 170.332031 185.027344 173.972656 181.570312 177.695312 C 178.117188 181.421875 174.761719 185.226562 171.5 189.113281 C 168.234375 193 165.074219 196.964844 162.007812 201 C 158.945312 205.039062 155.984375 209.148438 153.128906 213.328125 C 150.273438 217.507812 147.523438 221.753906 144.878906 226.066406 C 142.234375 230.378906 139.699219 234.753906 137.277344 239.1875 C 134.851562 243.621094 132.539062 248.109375 130.339844 252.65625 C 128.144531 257.199219 126.058594 261.792969 124.089844 266.441406 C 122.125 271.085938 120.273438 275.773438 118.542969 280.507812 C 116.808594 285.242188 115.195312 290.011719 113.703125 294.824219 C 112.210938 299.636719 110.839844 304.480469 109.589844 309.355469 C 108.339844 314.234375 107.214844 319.136719 106.210938 324.066406 C 105.207031 329 104.328125 333.953125 103.574219 338.925781 C 102.820312 343.898438 102.191406 348.886719 101.6875 353.890625 C 101.183594 358.890625 100.804688 363.90625 100.550781 368.925781 C 100.300781 373.949219 100.171875 378.972656 100.171875 384 C 100.171875 389.027344 100.300781 394.050781 100.550781 399.074219 C 100.804688 404.09375 101.183594 409.109375 101.6875 414.109375 C 102.191406 419.113281 102.820312 424.101562 103.574219 429.074219 C 104.328125 434.046875 105.207031 439 106.210938 443.933594 C 107.214844 448.863281 108.339844 453.765625 109.589844 458.644531 C 110.839844 463.519531 112.210938 468.363281 113.703125 473.175781 C 115.195312 477.988281 116.808594 482.757812 118.542969 487.492188 C 120.273438 492.226562 122.125 496.914062 124.089844 501.558594 C 126.058594 506.207031 128.144531 510.800781 130.339844 515.34375 C 132.539062 519.890625 134.851562 524.378906 137.277344 528.8125 C 139.699219 533.246094 142.234375 537.621094 144.878906 541.933594 C 147.523438 546.246094 150.273438 550.492188 153.128906 554.671875 C 155.984375 558.851562 158.945312 562.960938 162.007812 567 C 165.074219 571.035156 168.234375 575 171.5 578.886719 C 174.761719 582.773438 178.117188 586.578125 181.570312 590.304688 C 185.027344 594.027344 188.570312 597.667969 192.207031 601.222656 C 195.84375 604.777344 199.566406 608.242188 203.375 611.621094 C 207.1875 614.996094 211.078125 618.277344 215.054688 621.46875 C 219.03125 624.65625 223.082031 627.75 227.214844 630.746094 C 231.34375 633.738281 235.546875 636.632812 239.824219 639.425781 C 244.097656 642.21875 248.441406 644.910156 252.851562 647.496094 C 257.265625 650.078125 261.738281 652.554688 266.273438 654.925781 C 270.808594 657.296875 275.398438 659.554688 280.046875 661.707031 C 284.695312 663.855469 289.398438 665.890625 294.148438 667.816406 C 298.898438 669.738281 303.695312 671.546875 308.539062 673.242188 C 313.378906 674.9375 318.261719 676.511719 323.179688 677.972656 C 328.101562 679.429688 333.058594 680.773438 338.046875 681.992188 C 343.035156 683.214844 348.050781 684.316406 353.09375 685.296875 C 358.136719 686.277344 363.203125 687.136719 368.289062 687.875 C 373.375 688.613281 378.480469 689.226562 383.597656 689.722656 C 388.714844 690.214844 393.839844 690.582031 398.976562 690.828125 C 404.113281 691.078125 409.253906 691.199219 414.394531 691.199219 C 419.539062 691.199219 424.675781 691.078125 429.8125 690.828125 C 434.949219 690.582031 440.078125 690.214844 445.195312 689.722656 C 450.3125 689.226562 455.414062 688.613281 460.5 687.875 C 465.589844 687.136719 470.652344 686.277344 475.699219 685.296875 C 480.742188 684.316406 485.757812 683.214844 490.746094 681.992188 C 495.734375 680.773438 500.6875 679.429688 505.609375 677.972656 C 510.53125 676.511719 515.414062 674.9375 520.253906 673.242188 C 525.097656 671.546875 529.890625 669.738281 534.644531 667.816406 C 539.394531 665.890625 544.09375 663.855469 548.742188 661.707031 C 553.390625 659.554688 557.984375 657.296875 562.519531 654.925781 C 567.054688 652.554688 571.527344 650.078125 575.9375 647.492188 C 580.347656 644.910156 584.691406 642.21875 588.96875 639.425781 C 593.246094 636.632812 597.449219 633.738281 601.578125 630.746094 C 605.707031 627.75 609.761719 624.65625 613.738281 621.46875 C 617.710938 618.277344 621.605469 614.996094 625.414062 611.621094 C 629.226562 608.242188 632.949219 604.777344 636.585938 601.222656 C 640.222656 597.667969 643.765625 594.027344 647.21875 590.304688 C 650.671875 586.578125 654.03125 582.773438 657.292969 578.886719 C 660.554688 575 663.71875 571.035156 666.78125 567 C 669.84375 562.960938 672.804688 558.851562 675.664062 554.671875 C 678.519531 550.492188 681.269531 546.246094 683.914062 541.933594 C 686.558594 537.621094 689.089844 533.246094 691.515625 528.8125 C 693.941406 524.378906 696.25 519.890625 698.449219 515.34375 C 700.648438 510.800781 702.730469 506.207031 704.699219 501.558594 C 706.667969 496.914062 708.519531 492.226562 710.25 487.492188 C 711.984375 482.757812 713.59375 477.988281 715.089844 473.175781 C 716.582031 468.363281 717.953125 463.519531 719.203125 458.644531 C 720.449219 453.765625 721.578125 448.863281 722.582031 443.933594 C 723.585938 439 724.464844 434.046875 725.21875 429.074219 C 725.972656 424.101562 726.601562 419.113281 727.105469 414.109375 C 727.609375 409.109375 727.988281 404.09375 728.238281 399.074219 C 728.492188 394.050781 728.617188 389.027344 728.617188 384 C 728.617188 378.972656 728.492188 373.949219 728.238281 368.925781 C 727.988281 363.90625 727.609375 358.890625 727.105469 353.890625 C 726.601562 348.886719 725.972656 343.898438 725.21875 338.925781 C 724.464844 333.953125 723.585938 329 722.582031 324.066406 C 721.578125 319.136719 720.449219 314.234375 719.203125 309.355469 C 717.953125 304.480469 716.582031 299.636719 715.089844 294.824219 C 713.59375 290.011719 711.984375 285.242188 710.25 280.507812 C 708.519531 275.773438 706.667969 271.085938 704.699219 266.441406 C 702.730469 261.792969 700.648438 257.199219 698.449219 252.65625 C 696.25 248.109375 693.941406 243.621094 691.515625 239.1875 C 689.089844 234.753906 686.558594 230.378906 683.914062 226.066406 C 681.269531 221.753906 678.519531 217.507812 675.664062 213.328125 C 672.804688 209.148438 669.84375 205.039062 666.78125 201 C 663.71875 196.964844 660.554688 193 657.292969 189.113281 C 654.03125 185.226562 650.671875 181.421875 647.21875 177.695312 C 643.765625 173.972656 640.222656 170.332031 636.585938 166.777344 C 632.949219 163.222656 629.226562 159.757812 625.414062 156.378906 C 621.605469 153.003906 617.710938 149.71875 613.738281 146.53125 C 609.761719 143.339844 605.707031 140.25 601.578125 137.253906 C 597.449219 134.257812 593.246094 131.367188 588.96875 128.574219 C 584.691406 125.78125 580.347656 123.089844 575.9375 120.503906 C 571.527344 117.921875 567.054688 115.445312 562.519531 113.074219 C 557.984375 110.703125 553.390625 108.445312 548.742188 106.292969 C 544.09375 104.144531 539.394531 102.109375 534.644531 100.183594 C 529.890625 98.261719 525.097656 96.453125 520.253906 94.757812 C 515.414062 93.0625 510.53125 91.488281 505.609375 90.027344 C 500.6875 88.570312 495.734375 87.226562 490.746094 86.007812 C 485.757812 84.785156 480.742188 83.683594 475.699219 82.703125 C 470.652344 81.722656 465.589844 80.863281 460.5 80.125 C 455.414062 79.386719 450.3125 78.773438 445.195312 78.277344 C 440.078125 77.785156 434.949219 77.417969 429.8125 77.171875 C 424.675781 76.921875 419.539062 76.800781 414.394531 76.800781 Z M 414.394531 76.800781 "/>
<path style=" stroke:none;fill-rule:nonzero;fill:rgb(100%,0%,0%);fill-opacity:1;" d="M 724.140625 378.785156 C 724.191406 381.316406 724.230469 383.835938 724.230469 386.375 C 724.230469 383.835938 724.191406 381.304688 724.140625 378.785156 "/>
<path style=" stroke:none;fill-rule:nonzero;fill:rgb(100%,0%,0%);fill-opacity:1;" d="M 724.140625 393.96875 C 724.191406 391.445312 724.230469 388.917969 724.230469 386.375 C 724.230469 388.917969 724.191406 391.445312 724.140625 393.96875 "/>
<g clip-path="url(#clip1)" clip-rule="nonzero">
<path style=" stroke:none;fill-rule:nonzero;fill:rgb(100%,0%,0%);fill-opacity:1;" d="M 616.648438 171.238281 C 616.242188 171.167969 615.847656 171.089844 615.449219 171.007812 C 613.890625 169.570312 612.335938 168.332031 610.886719 167.199219 C 607.902344 164.898438 605.023438 163.398438 602.652344 162.207031 C 597.921875 159.808594 595.304688 158.527344 596.792969 155.441406 C 597.527344 153.832031 601.832031 152.671875 607.496094 151.847656 C 616.324219 158.527344 624.761719 165.691406 632.777344 173.300781 C 631.953125 173.242188 631.121094 173.171875 630.296875 173.101562 C 625.46875 172.65625 620.90625 172.03125 616.648438 171.238281 Z M 441.351562 110.085938 C 437.265625 109.3125 433.824219 108.089844 429.847656 107.722656 C 425.890625 107.316406 421.335938 107.871094 415.175781 110.976562 C 412.003906 112.566406 409.910156 114.371094 408.78125 116.308594 C 407.570312 116.257812 406.410156 116.246094 405.328125 116.296875 C 402.402344 116.496094 399.941406 117.082031 397.9375 117.507812 C 393.929688 118.390625 391.730469 118.90625 391.074219 116.394531 C 390.6875 114.917969 392.890625 111.910156 396.09375 108.410156 C 399.871094 108.507812 403.832031 107.914062 407.789062 107.019531 C 410.824219 106.292969 413.847656 105.144531 416.734375 104.011719 C 417.894531 103.566406 419.007812 103.078125 420.117188 102.574219 C 420.621094 103.636719 421.832031 104.648438 423.359375 105.460938 C 426.664062 107.1875 431.425781 107.953125 434.082031 106.394531 C 436.375 104.976562 437.257812 101.394531 437.128906 98.03125 C 438.386719 98.007812 439.648438 97.980469 440.90625 97.980469 C 445.164062 97.980469 449.386719 98.089844 453.59375 98.269531 C 450.25 101.769531 452.351562 106.125 458.394531 109.984375 C 457.886719 110.085938 457.351562 110.195312 456.867188 110.285156 C 450.132812 111.425781 445.480469 110.738281 441.351562 110.085938 Z M 366.914062 110.957031 C 365.175781 110.800781 363.5 110.175781 361.84375 108.984375 L 361.765625 108.925781 C 367.417969 107.316406 373.160156 105.898438 378.964844 104.628906 C 379.914062 104.855469 380.867188 105.09375 381.820312 105.332031 C 378.476562 107.515625 375.285156 109.46875 372.25 110.394531 C 370.421875 110.96875 368.636719 111.15625 366.914062 110.957031 Z M 285.558594 143.148438 C 287.757812 141.738281 289.980469 140.359375 292.234375 139.007812 C 290.835938 140.210938 289.535156 141.003906 288.324219 141.71875 C 287.371094 142.253906 286.449219 142.691406 285.558594 143.148438 Z M 690.851562 530.835938 C 714.578125 486.492188 728.039062 435.929688 728.039062 382.25 C 728.039062 416.144531 722.027344 448.660156 711.039062 478.804688 C 718.933594 451.804688 723.464844 423.367188 724.140625 393.96875 C 722.988281 438.90625 711.761719 481.335938 692.628906 519.078125 C 643.789062 606.953125 549.378906 666.507812 440.90625 666.507812 C 430.9375 666.507812 421.097656 666 411.386719 665.027344 C 407.757812 663.410156 404.386719 661.65625 401.171875 659.738281 C 396.242188 656.523438 391.5 653.460938 386.601562 649.878906 C 381.710938 646.296875 375.253906 644.808594 368.617188 643.945312 C 365.285156 643.554688 361.792969 643.617188 358.460938 643.675781 C 355.136719 643.734375 351.863281 644.03125 348.839844 644.527344 C 344.4375 645.3125 340.617188 646.335938 337.929688 647.65625 C 327.722656 643.773438 317.8125 639.339844 308.210938 634.378906 C 309.414062 634.398438 310.703125 634.347656 312.109375 634.210938 C 324.113281 632.761719 323.835938 624.15625 314.679688 613.519531 C 305.304688 602.925781 287.460938 590.015625 261.355469 576.382812 C 235.160156 562.46875 221.382812 547.269531 212.910156 533.574219 C 210.828125 530.082031 209.023438 526.691406 207.425781 523.335938 C 205.929688 519.914062 204.699219 516.480469 203.527344 513.097656 C 201.089844 506.417969 199.492188 499.523438 197.566406 492.398438 C 195.433594 485.390625 191.230469 478.515625 185.21875 472.730469 C 179.671875 466.726562 172.621094 461.589844 166.242188 457.71875 C 165.351562 457.171875 164.476562 456.667969 163.605469 456.179688 C 157.207031 432.605469 153.773438 407.820312 153.773438 382.25 C 153.773438 370.222656 154.527344 358.375 155.996094 346.753906 C 158.011719 341.488281 160.023438 335.773438 162.027344 329.621094 C 166.054688 317.246094 170.914062 307.414062 175.992188 299.523438 C 178.59375 295.636719 181.152344 292.144531 183.730469 289.027344 C 186.457031 286.039062 189.136719 283.382812 191.792969 280.988281 C 197.023438 276.128906 202.746094 272.875 208.109375 269.667969 C 213.675781 266.660156 219.367188 264.160156 225.179688 261.304688 C 237.074219 256.023438 245.625 241.03125 250.613281 228.867188 C 252.933594 222.65625 254.074219 217 253.410156 213.625 C 252.734375 210.253906 249.9375 208.785156 244.820312 211.53125 C 239.710938 214.300781 235.636719 217.328125 232.433594 220.324219 C 229.328125 223.441406 226.996094 226.40625 225.101562 228.828125 C 221.273438 233.601562 219.449219 236.546875 216.203125 234.226562 C 214.617188 233.085938 214.003906 228.3125 214.132812 222.121094 C 214.25 217.425781 214.785156 211.832031 215.382812 206.285156 C 221.492188 198.625 227.988281 191.300781 234.832031 184.316406 L 234.734375 184.582031 C 232.53125 190.347656 237.28125 191.636719 242.726562 190.476562 C 248.191406 189.285156 254.402344 185.574219 255.960938 181.210938 C 257.21875 177.390625 254.808594 172.417969 251.425781 168.675781 C 260.96875 160.371094 271.085938 152.671875 281.699219 145.65625 C 280.46875 146.777344 279.308594 148.335938 278.265625 150.765625 C 275.460938 157.257812 279.972656 159.726562 288.039062 158.109375 C 296.21875 156.523438 307.972656 151.125 322.574219 141.886719 C 337.335938 132.660156 349.109375 130.136719 358.550781 129.769531 C 368.121094 129.683594 375.640625 131.863281 384.03125 134.15625 C 388.238281 135.339844 392.988281 134.78125 397.699219 133.71875 C 400.0625 133.164062 402.410156 132.261719 404.652344 131.390625 C 406.894531 130.535156 409.027344 129.523438 410.953125 128.441406 C 411.28125 128.261719 411.585938 128.074219 411.902344 127.886719 C 414.035156 129.988281 416.933594 132.0625 420.542969 134.019531 C 434.65625 141.925781 458.8125 148.464844 491.980469 153 C 525.367188 157.714844 546.015625 168.578125 560.480469 179.832031 C 574.78125 191.628906 583.300781 204.148438 592.84375 218.0625 C 602.625 231.515625 622.910156 239.839844 639.898438 243.046875 C 656.492188 246.410156 669.527344 244.058594 660.570312 231.863281 C 656.15625 225.75 651.039062 221.59375 646.574219 218.132812 C 642.113281 214.667969 637.777344 212.40625 634.195312 210.628906 C 627.105469 207.019531 623.167969 205.09375 625.398438 200.449219 C 626.945312 197.066406 638.917969 195.011719 652.386719 193.820312 C 695.59375 243.613281 722.34375 308.097656 724.140625 378.785156 C 723.050781 330.78125 711.671875 285.316406 692.132812 244.515625 C 715.003906 285.316406 728.039062 332.269531 728.039062 382.25 C 728.039062 311.332031 704.582031 245.84375 664.933594 192.957031 C 665.667969 192.917969 666.402344 192.878906 667.125 192.847656 C 685.167969 192.003906 700.007812 191.25 686.101562 183.582031 C 682.660156 181.6875 678.652344 180.148438 674.328125 178.878906 C 669.953125 177.65625 665.113281 176.84375 660.214844 176.109375 C 659.25 175.96875 658.257812 175.859375 657.289062 175.730469 C 657.804688 175.078125 658.289062 174.414062 658.714844 173.738281 C 661.285156 169.582031 661.78125 165.136719 657.992188 165.046875 C 657.992188 165.046875 656.492188 165.253906 653.707031 165.175781 C 650.960938 165.046875 646.753906 164.789062 641.488281 163.816406 C 640.980469 163.726562 640.542969 163.695312 640.128906 163.695312 C 635.722656 159.09375 631.179688 154.617188 626.507812 150.292969 C 637.578125 149.746094 645.929688 149.039062 637.183594 144.21875 C 634.890625 142.957031 632.222656 141.925781 629.347656 141.082031 C 626.429688 140.28125 623.214844 139.734375 619.953125 139.246094 C 617.640625 138.910156 615.28125 138.632812 612.929688 138.363281 C 603.515625 130.566406 593.65625 123.300781 583.371094 116.59375 C 579.078125 113.589844 574.691406 110.691406 570.25 107.902344 C 569.1875 106.671875 568.105469 105.53125 567.015625 104.449219 C 565.488281 101.453125 563.863281 98.773438 562.164062 96.390625 C 557.316406 90.011719 551.9375 85.875 545.976562 83.789062 C 539.035156 81.417969 531.4375 81.488281 522.996094 83.285156 C 502.484375 74.640625 480.910156 68.042969 458.511719 63.707031 C 458.660156 62.082031 458.632812 60.414062 458.402344 58.847656 C 457.710938 54.003906 455.230469 50.171875 452.285156 52.574219 C 452.285156 52.574219 448.890625 56.324219 441.34375 60.851562 C 434.875 59.945312 428.339844 59.222656 421.742188 58.707031 C 428.089844 52.683594 431.425781 48.515625 422.933594 50.074219 C 417.816406 50.90625 412.160156 54.003906 406.558594 57.378906 C 406.308594 57.515625 406.0625 57.695312 405.8125 57.84375 C 402.433594 57.746094 399.039062 57.675781 395.636719 57.675781 C 376.027344 57.675781 356.804688 59.402344 338.128906 62.695312 C 336.988281 62.328125 335.867188 61.992188 334.765625 61.703125 C 326.9375 59.878906 320.183594 60.285156 314.261719 62.4375 C 309.34375 64.34375 304.988281 67.449219 300.953125 71.546875 C 276.859375 78.789062 253.925781 88.710938 232.511719 100.988281 C 232.066406 100.511719 231.617188 100.0625 231.144531 99.648438 C 227.503906 96.390625 223.148438 95.042969 222.433594 98.785156 C 222.433594 98.785156 222.304688 102.238281 220.628906 108.152344 C 214.71875 111.882812 208.925781 115.800781 203.28125 119.890625 C 203.816406 113.222656 203.132812 109.964844 198.320312 115.710938 C 195.542969 119.046875 193.441406 123.730469 191.554688 128.757812 C 172.144531 144.167969 154.519531 161.730469 139.027344 181.089844 L 138.332031 181.417969 C 134.75 183.234375 131.695312 185.277344 129.128906 187.539062 C 126.617188 189.84375 124.691406 192.433594 123.117188 195.160156 C 120.6875 199.289062 119.40625 203.980469 118.871094 209.140625 C 105.300781 230.304688 94.101562 253.136719 85.621094 277.25 C 84.808594 277.121094 83.984375 277.03125 83.191406 277.011719 C 78.324219 276.863281 74.234375 278.667969 76.082031 281.992188 C 76.082031 281.992188 77.011719 283.191406 78.351562 285.652344 C 79.136719 287.113281 80.039062 288.996094 81.019531 291.328125 C 79.015625 297.976562 77.210938 304.703125 75.625 311.519531 C 71.261719 305.269531 68.207031 302.433594 68.421875 310.460938 C 68.511719 315.46875 70.148438 321.15625 72.421875 326.992188 C 68.898438 346.25 67.054688 366.09375 67.054688 386.375 C 67.054688 389.09375 67.09375 391.792969 67.152344 394.492188 C 66.230469 396.148438 65.40625 397.777344 64.753906 399.355469 C 63.167969 403.054688 62.054688 406.589844 61.609375 409.972656 C 61.230469 413.34375 61.351562 416.558594 61.90625 419.667969 C 63.058594 426.074219 66.28125 431.949219 71.050781 437.683594 C 74.710938 461.050781 80.832031 483.605469 89.144531 505.058594 C 87.269531 505.773438 85.433594 506.835938 83.878906 508.054688 C 80.058594 511.070312 78.09375 515.082031 81.65625 516.441406 C 81.65625 516.441406 83.144531 516.757812 85.75 517.789062 C 88.417969 518.792969 91.972656 520.605469 96.703125 523.277344 L 96.878906 523.367188 C 99.609375 529.308594 102.503906 535.152344 105.570312 540.898438 C 95.203125 537.78125 87.644531 535.789062 94.0625 543.171875 C 98.695312 548.480469 106.472656 552.835938 114.597656 556.773438 C 123.910156 572.113281 134.445312 586.613281 146.070312 600.164062 L 146.070312 600.453125 C 146.425781 605.414062 147.269531 609.75 148.378906 613.648438 C 148.933594 615.59375 149.578125 617.421875 150.304688 619.128906 C 151.078125 620.785156 151.929688 622.3125 152.851562 623.742188 C 154.707031 626.597656 156.839844 629.019531 159.242188 631.0625 C 164.140625 635.042969 170.210938 637.40625 177.152344 638.851562 C 180.160156 639.347656 183.292969 639.726562 186.578125 639.972656 C 202.578125 653.191406 219.855469 664.917969 238.195312 674.949219 C 235.585938 676.984375 233.691406 680.863281 232.9375 684.496094 C 231.925781 689.300781 232.957031 693.683594 236.539062 692.492188 C 236.539062 692.492188 237.859375 691.820312 240.546875 690.875 C 243.222656 689.945312 247.242188 688.8125 252.496094 687.980469 C 255.523438 687.492188 256.4375 685.925781 256.058594 684.011719 C 262.960938 687.265625 270.003906 690.28125 277.15625 693.050781 C 275.757812 693.664062 274.359375 694.28125 272.980469 694.875 C 261.929688 699.429688 252.84375 703.199219 263.238281 704.945312 C 272.542969 706.433594 285.101562 702.960938 296.539062 699.855469 C 308.9375 703.777344 321.652344 706.960938 334.625 709.402344 C 336.382812 711.613281 338.136719 713.609375 339.902344 715.367188 C 343.375 718.917969 346.777344 721.855469 350.140625 724.125 C 354.542969 726.875 358.808594 728.75 362.984375 729.683594 C 363.609375 730.308594 364.214844 730.902344 364.769531 731.417969 C 366.308594 732.789062 367.378906 733.742188 367.378906 733.742188 C 375.582031 734.019531 384.648438 731.480469 390.054688 728.105469 C 394.535156 725.425781 396.480469 722.6875 393.515625 721.597656 C 396.402344 719.660156 399.308594 717.449219 402.28125 715 C 409.007812 714.871094 415.683594 714.53125 422.300781 714.007812 C 423.519531 714.976562 424.730469 715.890625 425.917969 716.703125 C 433.210938 721.25 440.164062 723.640625 446.976562 723.421875 C 460.554688 723.183594 473.421875 714.820312 487.882812 701.929688 C 577.09375 675.875 650.601562 612.996094 690.851562 530.835938 "/>
</g>
<path style=" stroke:none;fill-rule:nonzero;fill:rgb(100%,0%,0%);fill-opacity:1;" d="M 317.851562 728.246094 C 306.65625 727.339844 292.757812 730.507812 286.511719 727.859375 C 283.414062 726.609375 285.628906 729.632812 288.722656 732.996094 C 290.269531 734.675781 292.023438 736.460938 293.421875 737.78125 C 294.851562 739.039062 295.84375 739.921875 295.84375 739.921875 C 303.453125 740.191406 311.863281 737.828125 316.882812 734.703125 C 321.871094 731.71875 323.488281 728.632812 317.851562 728.246094 "/>
<path style=" stroke:none;fill-rule:nonzero;fill:rgb(100%,0%,0%);fill-opacity:1;" d="M 107.234375 585.203125 C 102.753906 581.800781 98.753906 578.644531 97.128906 575.726562 C 95.632812 572.730469 95.253906 576.550781 95.582031 581.035156 C 95.859375 585.558594 96.621094 590.898438 96.621094 590.898438 C 102.019531 596.167969 110.480469 599.402344 116.054688 600.421875 C 121.71875 601.40625 124.921875 600.097656 120.964844 596.097656 C 117.054688 592.039062 111.667969 588.664062 107.234375 585.203125 "/>
<g clip-path="url(#clip2)" clip-rule="nonzero">
<path style=" stroke:none;fill-rule:nonzero;fill:rgb(100%,0%,0%);fill-opacity:1;" d="M 49.835938 337.371094 C 50.628906 334.113281 47.871094 336.792969 45.242188 340.445312 C 42.566406 344.078125 39.71875 348.671875 39.71875 348.671875 C 40.421875 356.171875 44.875 364.089844 48.507812 368.457031 C 52.226562 372.84375 55.519531 373.902344 55.042969 368.296875 C 53.851562 357.105469 48.605469 344.015625 49.835938 337.371094 "/>
</g>
<path style=" stroke:none;fill-rule:nonzero;fill:rgb(100%,0%,0%);fill-opacity:1;" d="M 150.917969 151.390625 C 154.042969 146.648438 156.722656 141.0625 159.269531 135.992188 C 160.53125 133.460938 161.730469 131.042969 162.980469 129.039062 C 164.269531 127.074219 165.558594 125.464844 166.878906 124.433594 C 169.527344 122.398438 165.789062 122.785156 161.3125 123.757812 C 159.050781 124.226562 156.691406 124.917969 154.894531 125.496094 C 153.070312 126.089844 151.800781 126.507812 151.800781 126.507812 C 149.769531 129.691406 148.210938 133.421875 147.167969 137.066406 C 146.199219 140.765625 145.789062 144.417969 145.808594 147.304688 C 145.871094 153.097656 147.726562 156.035156 150.917969 151.390625 "/>
<g clip-path="url(#clip3)" clip-rule="nonzero">
<path style=" stroke:none;fill-rule:nonzero;fill:rgb(100%,0%,0%);fill-opacity:1;" d="M 363.71875 46.800781 C 369.171875 45.3125 374.828125 42.78125 380.015625 40.410156 C 385.191406 38.078125 389.933594 36.46875 393.277344 36.519531 C 396.597656 36.628906 393.496094 34.546875 389.449219 32.453125 C 387.425781 31.410156 385.171875 30.359375 383.40625 29.574219 C 381.660156 28.75 380.410156 28.335938 380.410156 28.335938 C 373.179688 30.714844 366.097656 35.84375 362.4375 40.398438 C 358.769531 44.933594 358.28125 48.386719 363.71875 46.800781 "/>
</g>
<path style=" stroke:none;fill-rule:nonzero;fill:rgb(100%,0%,0%);fill-opacity:1;" d="M 593.925781 103.574219 C 599.023438 105.996094 605.035156 107.625 610.53125 109.152344 C 615.796875 110.769531 620.4375 112.417969 622.996094 114.550781 C 616.453125 116.386719 614.210938 119.480469 621.09375 122.488281 C 628.761719 126.128906 637.796875 128.582031 646.058594 130.871094 C 654.144531 133.363281 661.304688 135.902344 665.09375 139.21875 C 668.851562 142.542969 667.253906 137.164062 664.585938 130.863281 C 661.9375 124.570312 658.171875 117.347656 658.171875 117.347656 C 647.546875 113.09375 634.34375 112.269531 625.804688 113.886719 C 625.386719 113.964844 624.992188 114.054688 624.59375 114.144531 C 624.386719 112.984375 623.710938 111.136719 622.867188 109.144531 C 621.101562 104.957031 618.59375 100.152344 618.59375 100.152344 C 611.53125 97.316406 602.753906 96.769531 597.058594 97.851562 C 591.328125 98.960938 588.746094 101.304688 593.925781 103.574219 "/>
<path style=" stroke:none;fill-rule:nonzero;fill:rgb(100%,0%,0%);fill-opacity:1;" d="M 686.925781 224.480469 C 689.871094 230.960938 695.464844 238.5 701.632812 239.265625 C 707.714844 240.097656 714.617188 234.214844 718.46875 227.953125 C 722.335938 221.703125 723.078125 215.015625 717.386719 214.894531 C 717.386719 214.894531 715.132812 215.214844 710.9375 215.085938 C 706.8125 214.894531 700.492188 214.5 692.578125 213.039062 C 684.683594 211.601562 684.148438 217.894531 686.925781 224.480469 "/>
<g clip-path="url(#clip4)" clip-rule="nonzero">
<path style=" stroke:none;fill-rule:nonzero;fill:rgb(95.689392%,26.269531%,21.179199%);fill-opacity:1;" d="M 519.375 327.199219 L 259.125 327.199219 L 259.125 303.488281 L 519.375 303.488281 Z M 519.375 327.199219 "/>
<path style=" stroke:none;fill-rule:nonzero;fill:rgb(95.689392%,26.269531%,21.179199%);fill-opacity:1;" d="M 519.375 327.199219 L 259.125 327.199219 L 259.125 303.488281 L 519.375 303.488281 Z M 519.375 327.199219 "/>
</g>
<g clip-path="url(#clip5)" clip-rule="nonzero">
<path style=" stroke:none;fill-rule:nonzero;fill:rgb(100%,59.609985%,0%);fill-opacity:1;" d="M 519.375 350.90625 L 259.125 350.90625 L 259.125 327.199219 L 519.375 327.199219 Z M 519.375 350.90625 "/>
<path style=" stroke:none;fill-rule:nonzero;fill:rgb(100%,59.609985%,0%);fill-opacity:1;" d="M 519.375 350.90625 L 259.125 350.90625 L 259.125 327.199219 L 519.375 327.199219 Z M 519.375 350.90625 "/>
</g>
<g clip-path="url(#clip6)" clip-rule="nonzero">
<path style=" stroke:none;fill-rule:nonzero;fill:rgb(100%,75.689697%,2.749634%);fill-opacity:1;" d="M 519.375 374.617188 L 259.125 374.617188 L 259.125 350.90625 L 519.375 350.90625 Z M 519.375 374.617188 "/>
<path style=" stroke:none;fill-rule:nonzero;fill:rgb(100%,75.689697%,2.749634%);fill-opacity:1;" d="M 519.375 374.617188 L 259.125 374.617188 L 259.125 350.90625 L 519.375 350.90625 Z M 519.375 374.617188 "/>
</g>
<g clip-path="url(#clip7)" clip-rule="nonzero">
<path style=" stroke:none;fill-rule:nonzero;fill:rgb(54.508972%,76.469421%,29.019165%);fill-opacity:1;" d="M 519.375 398.324219 L 259.125 398.324219 L 259.125 374.617188 L 519.375 374.617188 Z M 519.375 398.324219 "/>
<path style=" stroke:none;fill-rule:nonzero;fill:rgb(29.798889%,68.629456%,31.369019%);fill-opacity:1;" d="M 519.375 398.324219 L 259.125 398.324219 L 259.125 374.617188 L 519.375 374.617188 Z M 519.375 398.324219 "/>
</g>
<g clip-path="url(#clip8)" clip-rule="nonzero">
<path style=" stroke:none;fill-rule:nonzero;fill:rgb(12.939453%,58.81958%,95.289612%);fill-opacity:1;" d="M 519.375 422.03125 L 259.125 422.03125 L 259.125 398.324219 L 519.375 398.324219 Z M 519.375 422.03125 "/>
</g>
<g clip-path="url(#clip9)" clip-rule="nonzero">
<path style=" stroke:none;fill-rule:nonzero;fill:rgb(24.708557%,31.759644%,70.979309%);fill-opacity:1;" d="M 519.375 445.742188 L 259.125 445.742188 L 259.125 422.03125 L 519.375 422.03125 Z M 519.375 445.742188 "/>
</g>
<g clip-path="url(#clip10)" clip-rule="nonzero">
<path style=" stroke:none;fill-rule:nonzero;fill:rgb(61.178589%,15.289307%,69.018555%);fill-opacity:1;" d="M 519.375 469.449219 L 259.125 469.449219 L 259.125 445.742188 L 519.375 445.742188 Z M 519.375 469.449219 "/>
</g>
<g clip-path="url(#clip11)" clip-rule="nonzero">
<path style=" stroke:none;fill-rule:nonzero;fill:rgb(100%,100%,100%);fill-opacity:1;" d="M 486.253906 401.210938 L 391.847656 465.441406 C 389.066406 467.339844 385.820312 468.265625 382.589844 468.210938 C 380.074219 468.15625 377.59375 467.515625 375.304688 466.28125 C 370.070312 463.445312 366.847656 457.929688 366.964844 451.964844 L 369.480469 319.9375 C 369.605469 313.984375 373.027344 308.585938 378.371094 305.949219 C 383.714844 303.316406 390.085938 303.886719 394.871094 307.417969 L 486.753906 375.226562 C 490.910156 378.285156 493.324219 383.183594 493.226562 388.347656 C 493.132812 393.511719 490.523438 398.308594 486.253906 401.210938 Z M 414.382812 202.851562 C 314.347656 202.851562 233.242188 283.945312 233.242188 383.984375 C 233.242188 484.027344 314.347656 565.121094 414.382812 565.121094 C 514.425781 565.121094 595.523438 484.027344 595.523438 383.984375 C 595.523438 283.945312 514.425781 202.851562 414.382812 202.851562 "/>
</g>
</g>
</svg>
