<?xml version="1.0" encoding="UTF-8"?>
<svg xmlns="http://www.w3.org/2000/svg" xmlns:xlink="http://www.w3.org/1999/xlink" width="768pt" height="767.999994pt" viewBox="0 0 768 767.999994" version="1.2">
<defs>
<clipPath id="clip1">
  <path d="M 251.566406 299.738281 L 524.238281 299.738281 L 524.238281 325 L 251.566406 325 Z M 251.566406 299.738281 "/>
</clipPath>
<clipPath id="clip2">
  <path d="M 251.566406 324 L 524.238281 324 L 524.238281 350 L 251.566406 350 Z M 251.566406 324 "/>
</clipPath>
<clipPath id="clip3">
  <path d="M 251.566406 349 L 524.238281 349 L 524.238281 375 L 251.566406 375 Z M 251.566406 349 "/>
</clipPath>
<clipPath id="clip4">
  <path d="M 251.566406 374 L 524.238281 374 L 524.238281 400 L 251.566406 400 Z M 251.566406 374 "/>
</clipPath>
<clipPath id="clip5">
  <path d="M 251.566406 399 L 524.238281 399 L 524.238281 425 L 251.566406 425 Z M 251.566406 399 "/>
</clipPath>
<clipPath id="clip6">
  <path d="M 251.566406 424 L 524.238281 424 L 524.238281 449 L 251.566406 449 Z M 251.566406 424 "/>
</clipPath>
<clipPath id="clip7">
  <path d="M 251.566406 448 L 524.238281 448 L 524.238281 473.738281 L 251.566406 473.738281 Z M 251.566406 448 "/>
</clipPath>
<clipPath id="clip8">
  <path d="M 194.308594 194.308594 L 573.808594 194.308594 L 573.808594 573.808594 L 194.308594 573.808594 Z M 194.308594 194.308594 "/>
</clipPath>
<clipPath id="clip9">
  <path d="M 171 163 L 592.613281 163 L 592.613281 596 L 171 596 Z M 171 163 "/>
</clipPath>
<clipPath id="clip10">
  <path d="M 312 591 L 336 591 L 336 599.5625 L 312 599.5625 Z M 312 591 "/>
</clipPath>
<clipPath id="clip11">
  <path d="M 157.613281 344 L 168 344 L 168 368 L 157.613281 368 Z M 157.613281 344 "/>
</clipPath>
<clipPath id="clip12">
  <path d="M 359 150.3125 L 382 150.3125 L 382 163 L 359 163 Z M 359 150.3125 "/>
</clipPath>
</defs>
<g id="surface1">
<path style=" stroke:none;fill-rule:nonzero;fill:rgb(100%,100%,100%);fill-opacity:1;" d="M 384 78.808594 C 379.003906 78.808594 374.011719 78.929688 369.023438 79.175781 C 364.035156 79.421875 359.054688 79.789062 354.085938 80.277344 C 349.117188 80.769531 344.160156 81.378906 339.21875 82.113281 C 334.277344 82.84375 329.359375 83.699219 324.460938 84.671875 C 319.5625 85.648438 314.691406 86.742188 309.84375 87.957031 C 305 89.167969 300.1875 90.5 295.40625 91.949219 C 290.628906 93.398438 285.886719 94.964844 281.183594 96.648438 C 276.480469 98.332031 271.824219 100.128906 267.207031 102.039062 C 262.59375 103.953125 258.027344 105.976562 253.515625 108.109375 C 249 110.246094 244.539062 112.492188 240.132812 114.84375 C 235.730469 117.199219 231.382812 119.660156 227.101562 122.230469 C 222.816406 124.796875 218.597656 127.46875 214.445312 130.242188 C 210.292969 133.019531 206.210938 135.894531 202.199219 138.867188 C 198.1875 141.84375 194.25 144.914062 190.390625 148.085938 C 186.527344 151.253906 182.746094 154.515625 179.046875 157.867188 C 175.34375 161.222656 171.730469 164.664062 168.199219 168.199219 C 164.664062 171.730469 161.222656 175.34375 157.867188 179.046875 C 154.515625 182.746094 151.253906 186.527344 148.085938 190.390625 C 144.914062 194.25 141.84375 198.1875 138.867188 202.199219 C 135.894531 206.210938 133.019531 210.292969 130.242188 214.445312 C 127.46875 218.597656 124.796875 222.816406 122.230469 227.101562 C 119.660156 231.382812 117.199219 235.730469 114.84375 240.132812 C 112.492188 244.539062 110.246094 249 108.109375 253.515625 C 105.976562 258.027344 103.953125 262.59375 102.039062 267.207031 C 100.128906 271.824219 98.332031 276.480469 96.648438 281.183594 C 94.964844 285.886719 93.398438 290.628906 91.949219 295.40625 C 90.5 300.1875 89.167969 305 87.957031 309.84375 C 86.742188 314.691406 85.648438 319.5625 84.671875 324.460938 C 83.699219 329.359375 82.84375 334.277344 82.113281 339.21875 C 81.378906 344.160156 80.769531 349.117188 80.277344 354.085938 C 79.789062 359.058594 79.421875 364.035156 79.175781 369.023438 C 78.929688 374.011719 78.808594 379.003906 78.808594 384 C 78.808594 388.996094 78.929688 393.984375 79.175781 398.976562 C 79.421875 403.964844 79.789062 408.941406 80.277344 413.914062 C 80.769531 418.882812 81.378906 423.839844 82.113281 428.78125 C 82.84375 433.722656 83.699219 438.640625 84.671875 443.539062 C 85.648438 448.4375 86.742188 453.308594 87.957031 458.15625 C 89.167969 463 90.5 467.8125 91.949219 472.59375 C 93.398438 477.371094 94.964844 482.113281 96.648438 486.816406 C 98.332031 491.519531 100.128906 496.175781 102.039062 500.792969 C 103.953125 505.40625 105.976562 509.972656 108.109375 514.484375 C 110.246094 519 112.492188 523.460938 114.84375 527.867188 C 117.199219 532.269531 119.660156 536.617188 122.230469 540.898438 C 124.796875 545.183594 127.46875 549.402344 130.242188 553.554688 C 133.019531 557.707031 135.894531 561.789062 138.867188 565.800781 C 141.84375 569.8125 144.914062 573.75 148.085938 577.609375 C 151.253906 581.472656 154.515625 585.253906 157.867188 588.953125 C 161.222656 592.65625 164.664062 596.269531 168.199219 599.800781 C 171.730469 603.335938 175.34375 606.777344 179.046875 610.132812 C 182.746094 613.484375 186.527344 616.746094 190.390625 619.914062 C 194.25 623.085938 198.1875 626.15625 202.199219 629.132812 C 206.210938 632.105469 210.292969 634.980469 214.445312 637.757812 C 218.597656 640.53125 222.816406 643.203125 227.101562 645.769531 C 231.382812 648.339844 235.730469 650.800781 240.132812 653.15625 C 244.539062 655.507812 249 657.753906 253.515625 659.890625 C 258.027344 662.023438 262.59375 664.046875 267.207031 665.960938 C 271.824219 667.871094 276.480469 669.667969 281.183594 671.351562 C 285.886719 673.035156 290.628906 674.601562 295.40625 676.050781 C 300.1875 677.5 305 678.832031 309.84375 680.042969 C 314.691406 681.257812 319.5625 682.351562 324.460938 683.328125 C 329.359375 684.300781 334.277344 685.15625 339.21875 685.886719 C 344.160156 686.621094 349.117188 687.230469 354.085938 687.722656 C 359.054688 688.210938 364.035156 688.578125 369.023438 688.824219 C 374.011719 689.070312 379.003906 689.191406 384 689.191406 C 388.996094 689.191406 393.984375 689.070312 398.976562 688.824219 C 403.964844 688.578125 408.941406 688.210938 413.914062 687.722656 C 418.882812 687.230469 423.839844 686.621094 428.78125 685.886719 C 433.722656 685.15625 438.640625 684.300781 443.539062 683.328125 C 448.4375 682.351562 453.308594 681.257812 458.15625 680.042969 C 463 678.832031 467.8125 677.5 472.59375 676.050781 C 477.371094 674.601562 482.113281 673.035156 486.816406 671.351562 C 491.519531 669.667969 496.175781 667.871094 500.792969 665.960938 C 505.40625 664.046875 509.972656 662.023438 514.484375 659.890625 C 519 657.753906 523.460938 655.507812 527.867188 653.15625 C 532.269531 650.800781 536.617188 648.339844 540.898438 645.769531 C 545.183594 643.203125 549.402344 640.53125 553.554688 637.757812 C 557.707031 634.980469 561.789062 632.105469 565.800781 629.132812 C 569.8125 626.15625 573.75 623.085938 577.609375 619.914062 C 581.472656 616.746094 585.253906 613.484375 588.953125 610.132812 C 592.65625 606.777344 596.269531 603.335938 599.800781 599.800781 C 603.335938 596.269531 606.777344 592.65625 610.132812 588.953125 C 613.484375 585.253906 616.746094 581.472656 619.914062 577.609375 C 623.085938 573.75 626.15625 569.8125 629.132812 565.800781 C 632.105469 561.789062 634.980469 557.707031 637.757812 553.554688 C 640.53125 549.402344 643.203125 545.183594 645.769531 540.898438 C 648.339844 536.617188 650.800781 532.269531 653.15625 527.867188 C 655.507812 523.460938 657.753906 519 659.890625 514.484375 C 662.023438 509.972656 664.046875 505.40625 665.960938 500.792969 C 667.871094 496.175781 669.667969 491.519531 671.351562 486.816406 C 673.035156 482.113281 674.597656 477.371094 676.050781 472.59375 C 677.5 467.8125 678.832031 463 680.042969 458.15625 C 681.257812 453.308594 682.351562 448.4375 683.328125 443.539062 C 684.300781 438.640625 685.15625 433.722656 685.886719 428.78125 C 686.621094 423.839844 687.230469 418.882812 687.722656 413.914062 C 688.210938 408.941406 688.578125 403.964844 688.824219 398.976562 C 689.070312 393.984375 689.191406 388.996094 689.191406 384 C 689.191406 379.003906 689.070312 374.011719 688.824219 369.023438 C 688.578125 364.035156 688.210938 359.058594 687.722656 354.085938 C 687.230469 349.117188 686.621094 344.160156 685.886719 339.21875 C 685.15625 334.277344 684.300781 329.359375 683.328125 324.460938 C 682.351562 319.5625 681.257812 314.691406 680.042969 309.84375 C 678.832031 305 677.5 300.1875 676.050781 295.40625 C 674.597656 290.628906 673.035156 285.886719 671.351562 281.183594 C 669.667969 276.480469 667.871094 271.824219 665.960938 267.207031 C 664.046875 262.59375 662.023438 258.027344 659.890625 253.515625 C 657.753906 249 655.507812 244.539062 653.15625 240.132812 C 650.800781 235.730469 648.339844 231.382812 645.769531 227.101562 C 643.203125 222.816406 640.53125 218.597656 637.757812 214.445312 C 634.980469 210.292969 632.105469 206.210938 629.132812 202.199219 C 626.15625 198.1875 623.085938 194.25 619.914062 190.390625 C 616.746094 186.527344 613.484375 182.746094 610.132812 179.046875 C 606.777344 175.34375 603.335938 171.730469 599.800781 168.199219 C 596.269531 164.664062 592.65625 161.222656 588.953125 157.867188 C 585.253906 154.515625 581.472656 151.253906 577.609375 148.085938 C 573.75 144.914062 569.8125 141.84375 565.800781 138.867188 C 561.789062 135.894531 557.707031 133.019531 553.554688 130.242188 C 549.402344 127.46875 545.183594 124.796875 540.898438 122.230469 C 536.617188 119.660156 532.269531 117.199219 527.867188 114.84375 C 523.460938 112.492188 519 110.246094 514.484375 108.109375 C 509.972656 105.976562 505.40625 103.953125 500.792969 102.039062 C 496.175781 100.128906 491.519531 98.332031 486.816406 96.648438 C 482.113281 94.964844 477.371094 93.398438 472.59375 91.949219 C 467.8125 90.5 463 89.167969 458.15625 87.957031 C 453.308594 86.742188 448.4375 85.648438 443.539062 84.671875 C 438.640625 83.699219 433.722656 82.84375 428.78125 82.113281 C 423.839844 81.378906 418.882812 80.769531 413.914062 80.277344 C 408.941406 79.789062 403.964844 79.421875 398.976562 79.175781 C 393.984375 78.929688 388.996094 78.808594 384 78.808594 Z M 384 78.808594 "/>
<g clip-path="url(#clip1)" clip-rule="nonzero">
<path style=" stroke:none;fill-rule:nonzero;fill:rgb(95.689392%,26.269531%,21.179199%);fill-opacity:1;" d="M 524.214844 324.609375 L 251.585938 324.609375 L 251.585938 299.738281 L 524.214844 299.738281 Z M 524.214844 324.609375 "/>
<path style=" stroke:none;fill-rule:nonzero;fill:rgb(95.689392%,26.269531%,21.179199%);fill-opacity:1;" d="M 524.214844 324.609375 L 251.585938 324.609375 L 251.585938 299.738281 L 524.214844 299.738281 Z M 524.214844 324.609375 "/>
</g>
<g clip-path="url(#clip2)" clip-rule="nonzero">
<path style=" stroke:none;fill-rule:nonzero;fill:rgb(100%,59.609985%,0%);fill-opacity:1;" d="M 524.214844 349.480469 L 251.585938 349.480469 L 251.585938 324.609375 L 524.214844 324.609375 Z M 524.214844 349.480469 "/>
<path style=" stroke:none;fill-rule:nonzero;fill:rgb(100%,59.609985%,0%);fill-opacity:1;" d="M 524.214844 349.480469 L 251.585938 349.480469 L 251.585938 324.609375 L 524.214844 324.609375 Z M 524.214844 349.480469 "/>
</g>
<g clip-path="url(#clip3)" clip-rule="nonzero">
<path style=" stroke:none;fill-rule:nonzero;fill:rgb(100%,75.689697%,2.749634%);fill-opacity:1;" d="M 524.214844 374.347656 L 251.585938 374.347656 L 251.585938 349.480469 L 524.214844 349.480469 Z M 524.214844 374.347656 "/>
<path style=" stroke:none;fill-rule:nonzero;fill:rgb(100%,75.689697%,2.749634%);fill-opacity:1;" d="M 524.214844 374.347656 L 251.585938 374.347656 L 251.585938 349.480469 L 524.214844 349.480469 Z M 524.214844 374.347656 "/>
</g>
<g clip-path="url(#clip4)" clip-rule="nonzero">
<path style=" stroke:none;fill-rule:nonzero;fill:rgb(54.508972%,76.469421%,29.019165%);fill-opacity:1;" d="M 524.214844 399.21875 L 251.585938 399.21875 L 251.585938 374.347656 L 524.214844 374.347656 Z M 524.214844 399.21875 "/>
<path style=" stroke:none;fill-rule:nonzero;fill:rgb(29.798889%,68.629456%,31.369019%);fill-opacity:1;" d="M 524.214844 399.21875 L 251.585938 399.21875 L 251.585938 374.347656 L 524.214844 374.347656 Z M 524.214844 399.21875 "/>
</g>
<g clip-path="url(#clip5)" clip-rule="nonzero">
<path style=" stroke:none;fill-rule:nonzero;fill:rgb(12.939453%,58.81958%,95.289612%);fill-opacity:1;" d="M 524.214844 424.089844 L 251.585938 424.089844 L 251.585938 399.21875 L 524.214844 399.21875 Z M 524.214844 424.089844 "/>
</g>
<g clip-path="url(#clip6)" clip-rule="nonzero">
<path style=" stroke:none;fill-rule:nonzero;fill:rgb(24.708557%,31.759644%,70.979309%);fill-opacity:1;" d="M 524.214844 448.960938 L 251.585938 448.960938 L 251.585938 424.089844 L 524.214844 424.089844 Z M 524.214844 448.960938 "/>
</g>
<g clip-path="url(#clip7)" clip-rule="nonzero">
<path style=" stroke:none;fill-rule:nonzero;fill:rgb(61.178589%,15.289307%,69.018555%);fill-opacity:1;" d="M 524.214844 473.832031 L 251.585938 473.832031 L 251.585938 448.960938 L 524.214844 448.960938 Z M 524.214844 473.832031 "/>
</g>
<g clip-path="url(#clip8)" clip-rule="nonzero">
<path style=" stroke:none;fill-rule:nonzero;fill:rgb(100%,100%,100%);fill-opacity:1;" d="M 459.351562 402.101562 L 360.453125 469.390625 C 357.535156 471.378906 354.136719 472.347656 350.75 472.292969 C 348.117188 472.234375 345.519531 471.5625 343.117188 470.273438 C 337.632812 467.300781 334.261719 461.523438 334.378906 455.273438 L 337.019531 316.957031 C 337.148438 310.722656 340.734375 305.0625 346.332031 302.300781 C 351.929688 299.542969 358.601562 300.140625 363.617188 303.84375 L 459.875 374.878906 C 464.230469 378.082031 466.757812 383.214844 466.65625 388.625 C 466.554688 394.035156 463.824219 399.0625 459.351562 402.101562 Z M 384.058594 194.292969 C 279.261719 194.292969 194.289062 279.25 194.289062 384.054688 C 194.289062 488.863281 279.261719 573.816406 384.058594 573.816406 C 488.867188 573.816406 573.824219 488.863281 573.824219 384.054688 C 573.824219 279.25 488.867188 194.292969 384.058594 194.292969 "/>
</g>
<path style=" stroke:none;fill-rule:nonzero;fill:rgb(100%,0%,0%);fill-opacity:1;" d="M 589.777344 371.558594 C 589.808594 373.15625 589.832031 374.746094 589.832031 376.347656 C 589.832031 374.746094 589.808594 373.148438 589.777344 371.558594 "/>
<path style=" stroke:none;fill-rule:nonzero;fill:rgb(100%,0%,0%);fill-opacity:1;" d="M 589.777344 381.140625 C 589.808594 379.550781 589.832031 377.953125 589.832031 376.347656 C 589.832031 377.953125 589.808594 379.550781 589.777344 381.140625 "/>
<g clip-path="url(#clip9)" clip-rule="nonzero">
<path style=" stroke:none;fill-rule:nonzero;fill:rgb(100%,0%,0%);fill-opacity:1;" d="M 521.9375 240.554688 C 521.683594 240.511719 521.429688 240.460938 521.179688 240.410156 C 520.199219 239.503906 519.214844 238.71875 518.300781 238.007812 C 516.417969 236.554688 514.601562 235.609375 513.105469 234.855469 C 510.121094 233.339844 508.46875 232.53125 509.40625 230.585938 C 509.871094 229.570312 512.585938 228.835938 516.160156 228.316406 C 521.730469 232.53125 527.058594 237.054688 532.117188 241.859375 C 531.597656 241.820312 531.070312 241.777344 530.550781 241.734375 C 527.503906 241.449219 524.625 241.054688 521.9375 240.554688 Z M 411.308594 201.957031 C 408.726562 201.46875 406.554688 200.699219 404.046875 200.464844 C 401.546875 200.210938 398.675781 200.558594 394.789062 202.519531 C 392.785156 203.523438 391.464844 204.664062 390.75 205.882812 C 389.984375 205.851562 389.253906 205.847656 388.570312 205.878906 C 386.722656 206.003906 385.171875 206.371094 383.90625 206.640625 C 381.378906 207.199219 379.988281 207.523438 379.574219 205.941406 C 379.332031 205.007812 380.722656 203.109375 382.742188 200.898438 C 385.128906 200.960938 387.625 200.585938 390.125 200.019531 C 392.039062 199.5625 393.949219 198.835938 395.769531 198.125 C 396.503906 197.84375 397.203125 197.535156 397.90625 197.214844 C 398.222656 197.886719 398.988281 198.523438 399.953125 199.039062 C 402.035156 200.128906 405.042969 200.609375 406.71875 199.625 C 408.164062 198.730469 408.722656 196.46875 408.640625 194.347656 C 409.433594 194.335938 410.230469 194.316406 411.027344 194.316406 C 413.710938 194.316406 416.378906 194.382812 419.03125 194.496094 C 416.921875 196.707031 418.25 199.457031 422.0625 201.894531 C 421.742188 201.957031 421.40625 202.027344 421.097656 202.082031 C 416.847656 202.800781 413.910156 202.371094 411.308594 201.957031 Z M 364.328125 202.507812 C 363.230469 202.40625 362.171875 202.011719 361.128906 201.261719 L 361.078125 201.222656 C 364.644531 200.210938 368.269531 199.3125 371.933594 198.511719 C 372.535156 198.65625 373.132812 198.804688 373.734375 198.957031 C 371.625 200.335938 369.609375 201.566406 367.695312 202.152344 C 366.542969 202.515625 365.414062 202.632812 364.328125 202.507812 Z M 312.984375 222.824219 C 314.371094 221.933594 315.773438 221.066406 317.195312 220.214844 C 316.3125 220.972656 315.492188 221.472656 314.730469 221.921875 C 314.128906 222.261719 313.546875 222.535156 312.984375 222.824219 Z M 568.769531 467.53125 C 583.742188 439.542969 592.238281 407.625 592.238281 373.742188 C 592.238281 395.136719 588.445312 415.660156 581.507812 434.6875 C 586.492188 417.648438 589.351562 399.695312 589.777344 381.140625 C 589.050781 409.503906 581.964844 436.285156 569.890625 460.109375 C 539.066406 515.574219 479.484375 553.164062 411.027344 553.164062 C 404.734375 553.164062 398.523438 552.84375 392.394531 552.230469 C 390.105469 551.210938 387.976562 550.101562 385.949219 548.894531 C 382.835938 546.863281 379.84375 544.929688 376.753906 542.667969 C 373.667969 540.40625 369.589844 539.46875 365.402344 538.921875 C 363.300781 538.679688 361.097656 538.714844 358.992188 538.753906 C 356.894531 538.792969 354.832031 538.980469 352.921875 539.292969 C 350.140625 539.789062 347.730469 540.433594 346.035156 541.265625 C 339.59375 538.816406 333.339844 536.015625 327.28125 532.886719 C 328.039062 532.898438 328.851562 532.867188 329.742188 532.777344 C 337.316406 531.863281 337.140625 526.433594 331.363281 519.71875 C 325.445312 513.03125 314.183594 504.882812 297.707031 496.277344 C 281.175781 487.496094 272.480469 477.902344 267.136719 469.261719 C 265.820312 467.054688 264.679688 464.914062 263.671875 462.796875 C 262.726562 460.636719 261.953125 458.46875 261.214844 456.332031 C 259.671875 452.117188 258.664062 447.765625 257.449219 443.269531 C 256.105469 438.847656 253.449219 434.507812 249.65625 430.855469 C 246.15625 427.066406 241.707031 423.820312 237.683594 421.378906 C 237.117188 421.035156 236.566406 420.714844 236.015625 420.410156 C 231.980469 405.527344 229.8125 389.882812 229.8125 373.742188 C 229.8125 366.152344 230.289062 358.675781 231.214844 351.339844 C 232.488281 348.015625 233.757812 344.40625 235.023438 340.523438 C 237.5625 332.714844 240.628906 326.507812 243.835938 321.527344 C 245.476562 319.074219 247.089844 316.871094 248.71875 314.902344 C 250.441406 313.019531 252.128906 311.339844 253.808594 309.828125 C 257.105469 306.761719 260.71875 304.707031 264.105469 302.683594 C 267.617188 300.785156 271.210938 299.207031 274.878906 297.402344 C 282.382812 294.074219 287.78125 284.609375 290.929688 276.929688 C 292.394531 273.011719 293.113281 269.441406 292.695312 267.3125 C 292.269531 265.179688 290.503906 264.253906 287.273438 265.988281 C 284.050781 267.738281 281.476562 269.648438 279.453125 271.539062 C 277.496094 273.503906 276.023438 275.378906 274.828125 276.90625 C 272.414062 279.917969 271.261719 281.777344 269.214844 280.3125 C 268.210938 279.59375 267.824219 276.578125 267.90625 272.671875 C 267.980469 269.710938 268.316406 266.175781 268.695312 262.675781 C 272.550781 257.839844 276.648438 253.21875 280.96875 248.808594 L 280.90625 248.980469 C 279.515625 252.617188 282.515625 253.433594 285.953125 252.699219 C 289.402344 251.949219 293.320312 249.605469 294.304688 246.847656 C 295.097656 244.4375 293.578125 241.300781 291.441406 238.9375 C 297.464844 233.699219 303.847656 228.835938 310.546875 224.410156 C 309.769531 225.117188 309.039062 226.101562 308.382812 227.632812 C 306.609375 231.730469 309.457031 233.289062 314.546875 232.269531 C 319.710938 231.265625 327.128906 227.859375 336.34375 222.03125 C 345.660156 216.203125 353.089844 214.613281 359.050781 214.382812 C 365.089844 214.324219 369.835938 215.703125 375.132812 217.152344 C 377.785156 217.894531 380.785156 217.546875 383.757812 216.875 C 385.246094 216.523438 386.730469 215.953125 388.144531 215.402344 C 389.558594 214.863281 390.90625 214.226562 392.121094 213.542969 C 392.328125 213.429688 392.519531 213.3125 392.722656 213.191406 C 394.066406 214.519531 395.894531 215.828125 398.175781 217.0625 C 407.082031 222.054688 422.324219 226.183594 443.257812 229.042969 C 464.328125 232.019531 477.363281 238.875 486.488281 245.980469 C 495.515625 253.425781 500.894531 261.328125 506.914062 270.109375 C 513.085938 278.601562 525.890625 283.855469 536.613281 285.878906 C 547.085938 288.003906 555.308594 286.519531 549.65625 278.820312 C 546.871094 274.964844 543.640625 272.339844 540.824219 270.152344 C 538.007812 267.96875 535.273438 266.539062 533.011719 265.417969 C 528.535156 263.140625 526.050781 261.925781 527.460938 258.992188 C 528.4375 256.859375 535.992188 255.5625 544.492188 254.808594 C 571.761719 286.238281 588.644531 326.941406 589.777344 371.558594 C 589.089844 341.257812 581.910156 312.5625 569.578125 286.808594 C 584.011719 312.5625 592.238281 342.195312 592.238281 373.742188 C 592.238281 328.980469 577.433594 287.648438 552.410156 254.265625 C 552.875 254.238281 553.339844 254.214844 553.796875 254.195312 C 565.183594 253.664062 574.546875 253.1875 565.769531 248.347656 C 563.597656 247.148438 561.070312 246.179688 558.339844 245.378906 C 555.578125 244.605469 552.523438 244.09375 549.433594 243.628906 C 548.824219 243.542969 548.199219 243.472656 547.585938 243.390625 C 547.910156 242.980469 548.21875 242.558594 548.488281 242.132812 C 550.109375 239.507812 550.421875 236.703125 548.03125 236.648438 C 548.03125 236.648438 547.085938 236.777344 545.324219 236.730469 C 543.589844 236.648438 540.9375 236.484375 537.613281 235.871094 C 537.292969 235.8125 537.019531 235.796875 536.757812 235.796875 C 533.976562 232.890625 531.109375 230.066406 528.160156 227.335938 C 535.148438 226.988281 540.417969 226.546875 534.898438 223.5 C 533.449219 222.707031 531.765625 222.054688 529.953125 221.523438 C 528.109375 221.015625 526.082031 220.671875 524.023438 220.363281 C 522.566406 220.152344 521.074219 219.976562 519.589844 219.804688 C 513.652344 214.882812 507.429688 210.300781 500.9375 206.066406 C 498.226562 204.167969 495.460938 202.339844 492.65625 200.578125 C 491.984375 199.800781 491.300781 199.082031 490.613281 198.398438 C 489.648438 196.507812 488.625 194.816406 487.554688 193.3125 C 484.492188 189.285156 481.097656 186.675781 477.335938 185.359375 C 472.953125 183.863281 468.160156 183.90625 462.832031 185.039062 C 449.886719 179.585938 436.273438 175.421875 422.136719 172.683594 C 422.230469 171.65625 422.210938 170.605469 422.066406 169.613281 C 421.628906 166.558594 420.066406 164.140625 418.207031 165.65625 C 418.207031 165.65625 416.066406 168.023438 411.300781 170.878906 C 407.21875 170.308594 403.09375 169.851562 398.929688 169.527344 C 402.9375 165.726562 405.042969 163.09375 399.683594 164.078125 C 396.453125 164.605469 392.882812 166.558594 389.347656 168.6875 C 389.191406 168.777344 389.035156 168.886719 388.878906 168.980469 C 386.742188 168.917969 384.601562 168.875 382.457031 168.875 C 370.078125 168.875 357.949219 169.964844 346.160156 172.042969 C 345.441406 171.8125 344.734375 171.601562 344.039062 171.417969 C 339.097656 170.265625 334.835938 170.523438 331.097656 171.882812 C 327.992188 173.085938 325.246094 175.042969 322.699219 177.632812 C 307.492188 182.203125 293.019531 188.464844 279.503906 196.214844 C 279.222656 195.914062 278.941406 195.632812 278.640625 195.367188 C 276.34375 193.3125 273.59375 192.460938 273.144531 194.824219 C 273.144531 194.824219 273.0625 197.003906 272.003906 200.734375 C 268.273438 203.089844 264.617188 205.5625 261.058594 208.144531 C 261.394531 203.9375 260.964844 201.882812 257.925781 205.507812 C 256.175781 207.613281 254.847656 210.566406 253.65625 213.742188 C 241.40625 223.46875 230.28125 234.554688 220.503906 246.773438 L 220.066406 246.980469 C 217.808594 248.128906 215.878906 249.417969 214.257812 250.84375 C 212.675781 252.296875 211.460938 253.933594 210.464844 255.65625 C 208.929688 258.261719 208.121094 261.222656 207.785156 264.480469 C 199.222656 277.839844 192.152344 292.25 186.800781 307.46875 C 186.289062 307.386719 185.769531 307.332031 185.269531 307.320312 C 182.195312 307.222656 179.617188 308.363281 180.78125 310.460938 C 180.78125 310.460938 181.367188 311.21875 182.214844 312.773438 C 182.707031 313.695312 183.277344 314.882812 183.898438 316.355469 C 182.632812 320.550781 181.492188 324.796875 180.492188 329.101562 C 177.738281 325.15625 175.808594 323.363281 175.945312 328.429688 C 176.003906 331.59375 177.035156 335.183594 178.46875 338.863281 C 176.246094 351.019531 175.082031 363.546875 175.082031 376.347656 C 175.082031 378.066406 175.109375 379.769531 175.144531 381.472656 C 174.5625 382.519531 174.042969 383.546875 173.628906 384.539062 C 172.628906 386.875 171.929688 389.105469 171.644531 391.242188 C 171.410156 393.371094 171.484375 395.402344 171.835938 397.359375 C 172.558594 401.40625 174.59375 405.113281 177.605469 408.734375 C 179.914062 423.484375 183.777344 437.71875 189.023438 451.261719 C 187.839844 451.710938 186.683594 452.382812 185.699219 453.152344 C 183.289062 455.054688 182.050781 457.585938 184.296875 458.445312 C 184.296875 458.445312 185.238281 458.644531 186.882812 459.296875 C 188.566406 459.929688 190.808594 461.074219 193.792969 462.757812 L 193.90625 462.816406 C 195.628906 466.566406 197.457031 470.253906 199.390625 473.882812 C 192.847656 471.914062 188.078125 470.65625 192.128906 475.316406 C 195.050781 478.667969 199.960938 481.417969 205.085938 483.902344 C 210.964844 493.585938 217.613281 502.734375 224.949219 511.289062 L 224.949219 511.472656 C 225.175781 514.605469 225.707031 517.339844 226.40625 519.800781 C 226.757812 521.03125 227.164062 522.183594 227.621094 523.257812 C 228.109375 524.304688 228.648438 525.269531 229.230469 526.171875 C 230.402344 527.976562 231.746094 529.503906 233.261719 530.792969 C 236.355469 533.304688 240.1875 534.796875 244.566406 535.710938 C 246.464844 536.023438 248.441406 536.261719 250.515625 536.417969 C 260.613281 544.761719 271.515625 552.164062 283.089844 558.496094 C 281.445312 559.777344 280.25 562.226562 279.773438 564.519531 C 279.136719 567.550781 279.785156 570.320312 282.046875 569.566406 C 282.046875 569.566406 282.878906 569.140625 284.574219 568.546875 C 286.265625 567.957031 288.800781 567.242188 292.117188 566.71875 C 294.027344 566.410156 294.605469 565.421875 294.367188 564.210938 C 298.722656 566.265625 303.167969 568.171875 307.679688 569.917969 C 306.796875 570.304688 305.914062 570.695312 305.046875 571.070312 C 298.070312 573.945312 292.335938 576.324219 298.898438 577.425781 C 304.769531 578.367188 312.695312 576.175781 319.914062 574.214844 C 327.738281 576.6875 335.761719 578.699219 343.949219 580.238281 C 345.058594 581.636719 346.167969 582.894531 347.28125 584.003906 C 349.472656 586.246094 351.617188 588.101562 353.742188 589.535156 C 356.519531 591.269531 359.210938 592.453125 361.847656 593.042969 C 362.242188 593.4375 362.625 593.8125 362.972656 594.136719 C 363.945312 595 364.621094 595.601562 364.621094 595.601562 C 369.796875 595.777344 375.519531 594.175781 378.929688 592.046875 C 381.761719 590.355469 382.988281 588.625 381.117188 587.9375 C 382.9375 586.714844 384.769531 585.320312 386.648438 583.773438 C 390.894531 583.691406 395.105469 583.476562 399.28125 583.144531 C 400.050781 583.757812 400.816406 584.335938 401.566406 584.847656 C 406.167969 587.71875 410.554688 589.226562 414.855469 589.089844 C 423.425781 588.9375 431.546875 583.660156 440.671875 575.523438 C 496.972656 559.078125 543.367188 519.390625 568.769531 467.53125 "/>
</g>
<g clip-path="url(#clip10)" clip-rule="nonzero">
<path style=" stroke:none;fill-rule:nonzero;fill:rgb(100%,0%,0%);fill-opacity:1;" d="M 333.363281 592.132812 C 326.296875 591.5625 317.527344 593.5625 313.582031 591.890625 C 311.628906 591.101562 313.027344 593.011719 314.980469 595.132812 C 315.957031 596.191406 317.0625 597.320312 317.945312 598.152344 C 318.847656 598.945312 319.472656 599.503906 319.472656 599.503906 C 324.277344 599.671875 329.585938 598.183594 332.75 596.210938 C 335.898438 594.324219 336.921875 592.378906 333.363281 592.132812 "/>
</g>
<path style=" stroke:none;fill-rule:nonzero;fill:rgb(100%,0%,0%);fill-opacity:1;" d="M 200.441406 501.847656 C 197.613281 499.699219 195.089844 497.707031 194.0625 495.863281 C 193.117188 493.972656 192.878906 496.386719 193.085938 499.214844 C 193.261719 502.070312 193.742188 505.441406 193.742188 505.441406 C 197.148438 508.765625 202.488281 510.808594 206.007812 511.453125 C 209.582031 512.074219 211.601562 511.246094 209.105469 508.722656 C 206.640625 506.160156 203.242188 504.03125 200.441406 501.847656 "/>
<g clip-path="url(#clip11)" clip-rule="nonzero">
<path style=" stroke:none;fill-rule:nonzero;fill:rgb(100%,0%,0%);fill-opacity:1;" d="M 164.214844 345.417969 C 164.714844 343.363281 162.976562 345.054688 161.316406 347.359375 C 159.628906 349.648438 157.832031 352.550781 157.832031 352.550781 C 158.273438 357.285156 161.085938 362.28125 163.378906 365.039062 C 165.722656 367.804688 167.804688 368.476562 167.503906 364.9375 C 166.75 357.875 163.441406 349.613281 164.214844 345.417969 "/>
</g>
<path style=" stroke:none;fill-rule:nonzero;fill:rgb(100%,0%,0%);fill-opacity:1;" d="M 228.011719 228.03125 C 229.984375 225.035156 231.671875 221.507812 233.28125 218.308594 C 234.078125 216.710938 234.835938 215.183594 235.621094 213.917969 C 236.4375 212.679688 237.25 211.664062 238.082031 211.011719 C 239.753906 209.730469 237.394531 209.972656 234.570312 210.585938 C 233.144531 210.882812 231.652344 211.320312 230.519531 211.683594 C 229.367188 212.058594 228.566406 212.320312 228.566406 212.320312 C 227.285156 214.332031 226.300781 216.6875 225.644531 218.984375 C 225.03125 221.320312 224.773438 223.625 224.785156 225.449219 C 224.824219 229.105469 225.996094 230.960938 228.011719 228.03125 "/>
<g clip-path="url(#clip12)" clip-rule="nonzero">
<path style=" stroke:none;fill-rule:nonzero;fill:rgb(100%,0%,0%);fill-opacity:1;" d="M 362.3125 162.011719 C 365.753906 161.070312 369.320312 159.476562 372.597656 157.976562 C 375.863281 156.507812 378.855469 155.492188 380.964844 155.523438 C 383.0625 155.59375 381.101562 154.277344 378.550781 152.957031 C 377.273438 152.296875 375.851562 151.632812 374.738281 151.140625 C 373.636719 150.617188 372.847656 150.355469 372.847656 150.355469 C 368.28125 151.859375 363.8125 155.097656 361.503906 157.972656 C 359.1875 160.832031 358.878906 163.011719 362.3125 162.011719 "/>
</g>
<path style=" stroke:none;fill-rule:nonzero;fill:rgb(100%,0%,0%);fill-opacity:1;" d="M 507.597656 197.847656 C 510.816406 199.375 514.609375 200.402344 518.078125 201.367188 C 521.398438 202.390625 524.328125 203.429688 525.945312 204.773438 C 521.8125 205.933594 520.398438 207.886719 524.742188 209.785156 C 529.582031 212.082031 535.285156 213.628906 540.5 215.078125 C 545.601562 216.648438 550.121094 218.253906 552.511719 220.34375 C 554.882812 222.441406 553.875 219.046875 552.191406 215.070312 C 550.519531 211.101562 548.144531 206.542969 548.144531 206.542969 C 541.4375 203.855469 533.105469 203.335938 527.714844 204.355469 C 527.453125 204.40625 527.203125 204.460938 526.953125 204.519531 C 526.820312 203.785156 526.394531 202.621094 525.863281 201.363281 C 524.75 198.71875 523.164062 195.6875 523.164062 195.6875 C 518.707031 193.894531 513.167969 193.550781 509.574219 194.234375 C 505.957031 194.9375 504.328125 196.414062 507.597656 197.847656 "/>
<path style=" stroke:none;fill-rule:nonzero;fill:rgb(100%,0%,0%);fill-opacity:1;" d="M 566.289062 274.164062 C 568.148438 278.253906 571.679688 283.011719 575.574219 283.496094 C 579.410156 284.019531 583.769531 280.304688 586.195312 276.355469 C 588.636719 272.410156 589.109375 268.1875 585.515625 268.113281 C 585.515625 268.113281 584.09375 268.3125 581.445312 268.230469 C 578.839844 268.113281 574.855469 267.863281 569.859375 266.941406 C 564.875 266.03125 564.539062 270.003906 566.289062 274.164062 "/>
</g>
</svg>
