<?xml version="1.0" encoding="UTF-8"?>
<svg xmlns="http://www.w3.org/2000/svg" xmlns:xlink="http://www.w3.org/1999/xlink" width="768pt" height="767.999994pt" viewBox="0 0 768 767.999994" version="1.2">
<defs>
<clipPath id="clip1">
  <path d="M 234.800781 212.078125 L 589.550781 212.078125 L 589.550781 264 L 234.800781 264 Z M 234.800781 212.078125 "/>
</clipPath>
<clipPath id="clip2">
  <path d="M 234.800781 263 L 589.550781 263 L 589.550781 315 L 234.800781 315 Z M 234.800781 263 "/>
</clipPath>
<clipPath id="clip3">
  <path d="M 234.800781 314 L 589.550781 314 L 589.550781 366 L 234.800781 366 Z M 234.800781 314 "/>
</clipPath>
<clipPath id="clip4">
  <path d="M 234.800781 365 L 589.550781 365 L 589.550781 417 L 234.800781 417 Z M 234.800781 365 "/>
</clipPath>
<clipPath id="clip5">
  <path d="M 234.800781 416 L 589.550781 416 L 589.550781 468 L 234.800781 468 Z M 234.800781 416 "/>
</clipPath>
<clipPath id="clip6">
  <path d="M 234.800781 467 L 589.550781 467 L 589.550781 518 L 234.800781 518 Z M 234.800781 467 "/>
</clipPath>
<clipPath id="clip7">
  <path d="M 234.800781 517 L 589.550781 517 L 589.550781 568.972656 L 234.800781 568.972656 Z M 234.800781 517 "/>
</clipPath>
<clipPath id="clip8">
  <path d="M 198.113281 195.667969 L 609.113281 195.667969 L 609.113281 581.917969 L 198.113281 581.917969 Z M 198.113281 195.667969 "/>
</clipPath>
</defs>
<g id="surface1">
<path style=" stroke:none;fill-rule:nonzero;fill:rgb(100%,100%,100%);fill-opacity:1;" d="M 384 0 C 377.714844 0 371.433594 0.152344 365.15625 0.460938 C 358.882812 0.769531 352.617188 1.234375 346.363281 1.847656 C 340.105469 2.464844 333.871094 3.234375 327.65625 4.15625 C 321.4375 5.078125 315.25 6.152344 309.085938 7.378906 C 302.921875 8.605469 296.792969 9.980469 290.695312 11.507812 C 284.597656 13.035156 278.542969 14.710938 272.53125 16.535156 C 266.515625 18.359375 260.550781 20.328125 254.632812 22.445312 C 248.71875 24.5625 242.855469 26.824219 237.050781 29.230469 C 231.242188 31.636719 225.5 34.179688 219.820312 36.867188 C 214.136719 39.554688 208.527344 42.378906 202.984375 45.34375 C 197.441406 48.304688 191.976562 51.402344 186.585938 54.632812 C 181.195312 57.863281 175.886719 61.222656 170.660156 64.714844 C 165.4375 68.207031 160.300781 71.824219 155.25 75.566406 C 150.203125 79.3125 145.25 83.175781 140.394531 87.164062 C 135.535156 91.152344 130.777344 95.253906 126.121094 99.476562 C 121.464844 103.695312 116.914062 108.027344 112.472656 112.472656 C 108.027344 116.914062 103.695312 121.464844 99.476562 126.121094 C 95.253906 130.777344 91.152344 135.535156 87.164062 140.394531 C 83.175781 145.25 79.3125 150.203125 75.566406 155.25 C 71.824219 160.300781 68.207031 165.4375 64.714844 170.660156 C 61.222656 175.886719 57.863281 181.195312 54.632812 186.585938 C 51.402344 191.976562 48.304688 197.441406 45.34375 202.984375 C 42.378906 208.527344 39.554688 214.136719 36.867188 219.820312 C 34.179688 225.5 31.636719 231.242188 29.230469 237.050781 C 26.824219 242.855469 24.5625 248.71875 22.445312 254.632812 C 20.328125 260.550781 18.359375 266.515625 16.535156 272.53125 C 14.710938 278.542969 13.035156 284.597656 11.507812 290.695312 C 9.980469 296.792969 8.605469 302.921875 7.378906 309.085938 C 6.152344 315.25 5.078125 321.4375 4.15625 327.65625 C 3.234375 333.871094 2.464844 340.105469 1.847656 346.363281 C 1.234375 352.617188 0.769531 358.882812 0.460938 365.15625 C 0.152344 371.433594 0 377.714844 0 384 C 0 390.285156 0.152344 396.566406 0.460938 402.84375 C 0.769531 409.117188 1.234375 415.382812 1.847656 421.636719 C 2.464844 427.894531 3.234375 434.128906 4.15625 440.34375 C 5.078125 446.5625 6.152344 452.75 7.378906 458.914062 C 8.605469 465.078125 9.980469 471.207031 11.507812 477.304688 C 13.035156 483.402344 14.710938 489.457031 16.535156 495.46875 C 18.359375 501.484375 20.328125 507.449219 22.445312 513.367188 C 24.5625 519.28125 26.824219 525.144531 29.230469 530.949219 C 31.636719 536.757812 34.179688 542.5 36.867188 548.179688 C 39.554688 553.863281 42.378906 559.472656 45.34375 565.015625 C 48.304688 570.558594 51.402344 576.023438 54.632812 581.414062 C 57.863281 586.804688 61.222656 592.113281 64.714844 597.339844 C 68.207031 602.5625 71.824219 607.699219 75.566406 612.75 C 79.3125 617.796875 83.175781 622.75 87.164062 627.605469 C 91.152344 632.464844 95.253906 637.222656 99.476562 641.878906 C 103.695312 646.535156 108.027344 651.085938 112.472656 655.527344 C 116.914062 659.972656 121.464844 664.304688 126.121094 668.523438 C 130.777344 672.746094 135.535156 676.847656 140.394531 680.835938 C 145.25 684.824219 150.203125 688.6875 155.25 692.429688 C 160.300781 696.175781 165.4375 699.792969 170.660156 703.285156 C 175.886719 706.777344 181.195312 710.136719 186.585938 713.367188 C 191.976562 716.597656 197.441406 719.695312 202.984375 722.65625 C 208.527344 725.621094 214.136719 728.445312 219.820312 731.132812 C 225.5 733.820312 231.242188 736.363281 237.050781 738.769531 C 242.855469 741.175781 248.71875 743.4375 254.632812 745.554688 C 260.550781 747.671875 266.515625 749.640625 272.53125 751.464844 C 278.542969 753.289062 284.597656 754.964844 290.695312 756.492188 C 296.792969 758.019531 302.921875 759.394531 309.085938 760.621094 C 315.25 761.847656 321.4375 762.921875 327.65625 763.84375 C 333.871094 764.765625 340.105469 765.535156 346.363281 766.152344 C 352.617188 766.765625 358.882812 767.230469 365.15625 767.539062 C 371.433594 767.847656 377.714844 768 384 768 C 390.285156 768 396.566406 767.847656 402.84375 767.539062 C 409.117188 767.230469 415.382812 766.765625 421.636719 766.152344 C 427.894531 765.535156 434.128906 764.765625 440.34375 763.84375 C 446.5625 762.921875 452.75 761.847656 458.914062 760.621094 C 465.078125 759.394531 471.207031 758.019531 477.304688 756.492188 C 483.402344 754.964844 489.457031 753.289062 495.46875 751.464844 C 501.484375 749.640625 507.449219 747.671875 513.367188 745.550781 C 519.28125 743.4375 525.144531 741.175781 530.949219 738.769531 C 536.757812 736.363281 542.5 733.820312 548.179688 731.132812 C 553.863281 728.445312 559.472656 725.621094 565.015625 722.65625 C 570.558594 719.695312 576.023438 716.597656 581.414062 713.367188 C 586.804688 710.136719 592.113281 706.777344 597.339844 703.285156 C 602.5625 699.792969 607.699219 696.175781 612.75 692.429688 C 617.796875 688.6875 622.75 684.824219 627.605469 680.835938 C 632.464844 676.847656 637.222656 672.746094 641.878906 668.523438 C 646.535156 664.304688 651.085938 659.972656 655.527344 655.527344 C 659.972656 651.085938 664.304688 646.535156 668.523438 641.878906 C 672.746094 637.222656 676.847656 632.464844 680.835938 627.605469 C 684.824219 622.75 688.6875 617.796875 692.429688 612.75 C 696.175781 607.699219 699.792969 602.5625 703.285156 597.339844 C 706.777344 592.113281 710.136719 586.804688 713.367188 581.414062 C 716.597656 576.023438 719.695312 570.558594 722.65625 565.015625 C 725.621094 559.472656 728.445312 553.863281 731.132812 548.179688 C 733.820312 542.5 736.363281 536.757812 738.769531 530.949219 C 741.175781 525.144531 743.4375 519.28125 745.554688 513.367188 C 747.671875 507.449219 749.640625 501.484375 751.464844 495.46875 C 753.289062 489.457031 754.964844 483.402344 756.492188 477.304688 C 758.019531 471.207031 759.394531 465.078125 760.621094 458.914062 C 761.847656 452.75 762.921875 446.5625 763.84375 440.34375 C 764.765625 434.128906 765.535156 427.894531 766.152344 421.636719 C 766.765625 415.382812 767.230469 409.117188 767.539062 402.84375 C 767.847656 396.566406 768 390.285156 768 384 C 768 377.714844 767.847656 371.433594 767.539062 365.15625 C 767.230469 358.882812 766.765625 352.617188 766.152344 346.363281 C 765.535156 340.105469 764.765625 333.871094 763.84375 327.65625 C 762.921875 321.4375 761.847656 315.25 760.621094 309.085938 C 759.394531 302.921875 758.019531 296.792969 756.492188 290.695312 C 754.964844 284.597656 753.289062 278.542969 751.464844 272.53125 C 749.640625 266.515625 747.667969 260.550781 745.550781 254.632812 C 743.4375 248.71875 741.175781 242.855469 738.769531 237.050781 C 736.363281 231.242188 733.820312 225.5 731.132812 219.820312 C 728.445312 214.136719 725.621094 208.527344 722.65625 202.984375 C 719.695312 197.441406 716.597656 191.976562 713.367188 186.585938 C 710.136719 181.195312 706.777344 175.886719 703.285156 170.660156 C 699.792969 165.4375 696.175781 160.300781 692.429688 155.25 C 688.6875 150.203125 684.824219 145.25 680.835938 140.394531 C 676.847656 135.535156 672.746094 130.777344 668.523438 126.121094 C 664.304688 121.464844 659.972656 116.914062 655.527344 112.472656 C 651.085938 108.027344 646.535156 103.695312 641.878906 99.476562 C 637.222656 95.253906 632.464844 91.152344 627.605469 87.164062 C 622.75 83.175781 617.796875 79.3125 612.75 75.566406 C 607.699219 71.824219 602.5625 68.207031 597.339844 64.714844 C 592.113281 61.222656 586.804688 57.863281 581.414062 54.632812 C 576.023438 51.402344 570.558594 48.304688 565.015625 45.34375 C 559.472656 42.378906 553.863281 39.554688 548.179688 36.867188 C 542.5 34.179688 536.757812 31.636719 530.949219 29.230469 C 525.144531 26.824219 519.28125 24.5625 513.367188 22.445312 C 507.449219 20.328125 501.484375 18.359375 495.46875 16.535156 C 489.457031 14.710938 483.402344 13.035156 477.304688 11.507812 C 471.207031 9.980469 465.078125 8.605469 458.914062 7.378906 C 452.75 6.152344 446.5625 5.078125 440.34375 4.15625 C 434.128906 3.234375 427.894531 2.464844 421.636719 1.847656 C 415.382812 1.234375 409.117188 0.769531 402.84375 0.460938 C 396.566406 0.152344 390.285156 0 384 0 Z M 384 0 "/>
<g clip-path="url(#clip1)" clip-rule="nonzero">
<path style=" stroke:none;fill-rule:nonzero;fill:rgb(95.689392%,26.269531%,21.179199%);fill-opacity:1;" d="M 674.46875 263.0625 L 113.84375 263.0625 L 113.84375 212.078125 L 674.46875 212.078125 Z M 674.46875 263.0625 "/>
<path style=" stroke:none;fill-rule:nonzero;fill:rgb(95.689392%,26.269531%,21.179199%);fill-opacity:1;" d="M 674.46875 263.0625 L 113.84375 263.0625 L 113.84375 212.078125 L 674.46875 212.078125 Z M 674.46875 263.0625 "/>
</g>
<g clip-path="url(#clip2)" clip-rule="nonzero">
<path style=" stroke:none;fill-rule:nonzero;fill:rgb(100%,59.609985%,0%);fill-opacity:1;" d="M 674.46875 314.046875 L 113.84375 314.046875 L 113.84375 263.0625 L 674.46875 263.0625 Z M 674.46875 314.046875 "/>
<path style=" stroke:none;fill-rule:nonzero;fill:rgb(100%,59.609985%,0%);fill-opacity:1;" d="M 674.46875 314.046875 L 113.84375 314.046875 L 113.84375 263.0625 L 674.46875 263.0625 Z M 674.46875 314.046875 "/>
</g>
<g clip-path="url(#clip3)" clip-rule="nonzero">
<path style=" stroke:none;fill-rule:nonzero;fill:rgb(100%,75.689697%,2.749634%);fill-opacity:1;" d="M 674.46875 365.035156 L 113.84375 365.035156 L 113.84375 314.046875 L 674.46875 314.046875 Z M 674.46875 365.035156 "/>
<path style=" stroke:none;fill-rule:nonzero;fill:rgb(100%,75.689697%,2.749634%);fill-opacity:1;" d="M 674.46875 365.035156 L 113.84375 365.035156 L 113.84375 314.046875 L 674.46875 314.046875 Z M 674.46875 365.035156 "/>
</g>
<g clip-path="url(#clip4)" clip-rule="nonzero">
<path style=" stroke:none;fill-rule:nonzero;fill:rgb(54.508972%,76.469421%,29.019165%);fill-opacity:1;" d="M 674.46875 416.019531 L 113.84375 416.019531 L 113.84375 365.035156 L 674.46875 365.035156 Z M 674.46875 416.019531 "/>
<path style=" stroke:none;fill-rule:nonzero;fill:rgb(29.798889%,68.629456%,31.369019%);fill-opacity:1;" d="M 674.46875 416.019531 L 113.84375 416.019531 L 113.84375 365.035156 L 674.46875 365.035156 Z M 674.46875 416.019531 "/>
</g>
<g clip-path="url(#clip5)" clip-rule="nonzero">
<path style=" stroke:none;fill-rule:nonzero;fill:rgb(12.939453%,58.81958%,95.289612%);fill-opacity:1;" d="M 674.46875 467.003906 L 113.84375 467.003906 L 113.84375 416.019531 L 674.46875 416.019531 Z M 674.46875 467.003906 "/>
</g>
<g clip-path="url(#clip6)" clip-rule="nonzero">
<path style=" stroke:none;fill-rule:nonzero;fill:rgb(24.708557%,31.759644%,70.979309%);fill-opacity:1;" d="M 674.46875 517.988281 L 113.84375 517.988281 L 113.84375 467.003906 L 674.46875 467.003906 Z M 674.46875 517.988281 "/>
</g>
<g clip-path="url(#clip7)" clip-rule="nonzero">
<path style=" stroke:none;fill-rule:nonzero;fill:rgb(61.178589%,15.289307%,69.018555%);fill-opacity:1;" d="M 674.46875 568.972656 L 113.84375 568.972656 L 113.84375 517.988281 L 674.46875 517.988281 Z M 674.46875 568.972656 "/>
</g>
<g clip-path="url(#clip8)" clip-rule="nonzero">
<path style=" stroke:none;fill-rule:nonzero;fill:rgb(100%,100%,100%);fill-opacity:1;" d="M 536.375 420.519531 L 336.230469 556.695312 C 330.328125 560.714844 323.449219 562.675781 316.59375 562.566406 C 311.265625 562.445312 306.007812 561.089844 301.152344 558.472656 C 290.054688 552.460938 283.226562 540.769531 283.46875 528.121094 L 288.804688 248.210938 C 289.066406 235.59375 296.328125 224.140625 307.65625 218.550781 C 318.988281 212.972656 332.488281 214.179688 342.632812 221.667969 L 537.433594 365.425781 C 546.25 371.910156 551.367188 382.292969 551.15625 393.242188 C 550.953125 404.191406 545.425781 414.367188 536.375 420.519531 Z M 384.003906 -0.0234375 C 171.921875 -0.0234375 -0.0351562 171.902344 -0.0351562 383.992188 C -0.0351562 596.09375 171.921875 768.023438 384.003906 768.023438 C 596.105469 768.023438 768.03125 596.09375 768.03125 383.992188 C 768.03125 171.902344 596.105469 -0.0234375 384.003906 -0.0234375 "/>
</g>
</g>
</svg>
