<?xml version="1.0" encoding="UTF-8"?>
<svg xmlns="http://www.w3.org/2000/svg" xmlns:xlink="http://www.w3.org/1999/xlink" width="768pt" height="767.999994pt" viewBox="0 0 768 767.999994" version="1.2">
<defs>
<clipPath id="clip1">
  <path d="M 9 4 L 767 4 L 767 764.878906 L 9 764.878906 Z M 9 4 "/>
</clipPath>
<clipPath id="clip2">
  <path d="M 234.800781 212.078125 L 589.550781 212.078125 L 589.550781 264 L 234.800781 264 Z M 234.800781 212.078125 "/>
</clipPath>
<clipPath id="clip3">
  <path d="M 234.800781 263 L 589.550781 263 L 589.550781 315 L 234.800781 315 Z M 234.800781 263 "/>
</clipPath>
<clipPath id="clip4">
  <path d="M 234.800781 314 L 589.550781 314 L 589.550781 366 L 234.800781 366 Z M 234.800781 314 "/>
</clipPath>
<clipPath id="clip5">
  <path d="M 234.800781 365 L 589.550781 365 L 589.550781 417 L 234.800781 417 Z M 234.800781 365 "/>
</clipPath>
<clipPath id="clip6">
  <path d="M 234.800781 416 L 589.550781 416 L 589.550781 468 L 234.800781 468 Z M 234.800781 416 "/>
</clipPath>
<clipPath id="clip7">
  <path d="M 234.800781 467 L 589.550781 467 L 589.550781 518 L 234.800781 518 Z M 234.800781 467 "/>
</clipPath>
<clipPath id="clip8">
  <path d="M 234.800781 517 L 589.550781 517 L 589.550781 568.972656 L 234.800781 568.972656 Z M 234.800781 517 "/>
</clipPath>
<clipPath id="clip9">
  <path d="M 198.113281 195.667969 L 609.113281 195.667969 L 609.113281 581.917969 L 198.113281 581.917969 Z M 198.113281 195.667969 "/>
</clipPath>
</defs>
<g id="surface1">
<path style=" stroke:none;fill-rule:nonzero;fill:rgb(100%,0%,0%);fill-opacity:1;" d="M 762.59375 383.878906 C 761.726562 357.375 757.972656 333.425781 752.984375 313.101562 C 755.347656 318.402344 756.25 315.882812 755.40625 306.140625 C 754.449219 296.441406 751.699219 279.449219 744.457031 256.773438 C 737.21875 234.152344 725.375 205.757812 705.621094 175.15625 C 685.941406 144.636719 658.152344 111.90625 620.453125 83.0625 C 582.867188 54.195312 538.3125 32.03125 491.558594 19.640625 C 444.804688 7.054688 396.285156 4.429688 351.269531 9.921875 C 306.136719 15.394531 264.640625 29.21875 230.128906 46.972656 C 195.488281 64.671875 167.820312 86.136719 147.160156 106.023438 C 150.535156 101.292969 147.9375 101.820312 139.929688 107.429688 C 132.019531 113.117188 118.765625 124.0625 102.777344 141.675781 C 86.851562 159.265625 68.199219 183.695312 51.585938 216.128906 C 34.984375 248.445312 20.605469 288.992188 14.648438 336.097656 C 8.71875 383.105469 11.859375 432.601562 24.53125 479.300781 C 37.0625 526.023438 59.113281 569.441406 86.621094 605.519531 C 114.066406 641.746094 146.824219 670.59375 179.464844 691.558594 C 212.117188 712.664062 244.570312 725.878906 272.160156 733.796875 C 266.398438 733.164062 268.117188 735.28125 277.023438 739.320312 C 285.921875 743.320312 302.066406 749.277344 325.351562 754.238281 C 348.605469 759.109375 379.085938 762.898438 415.421875 760.980469 C 451.667969 759.105469 493.980469 751.277344 537.761719 732.808594 C 573.238281 717.835938 607.097656 696.753906 636.707031 670.929688 C 666.367188 645.144531 691.640625 614.582031 711.1875 581.898438 C 750.820312 516.402344 765.054688 443.03125 762.683594 383.878906 L 710.535156 383.878906 C 711.757812 425.597656 704.921875 463.203125 695.746094 493.148438 C 694.410156 488.089844 687.226562 508.425781 665.417969 543.710938 C 654.332031 561.191406 639.085938 582.199219 617.753906 603.671875 C 596.457031 625.082031 568.949219 646.964844 534.578125 664.660156 C 500.246094 682.351562 461.855469 694.054688 422.808594 698.421875 C 383.722656 702.773438 344.183594 700.03125 307.925781 691.023438 C 271.578125 682.15625 238.542969 667.136719 210.714844 649.546875 C 182.851562 631.90625 160.15625 611.792969 142.652344 592.914062 C 147.703125 594.296875 133.6875 577.859375 114.039062 541.320312 C 104.457031 522.96875 93.914062 499.285156 86.050781 470.101562 C 78.203125 440.980469 73.304688 406.230469 75.207031 367.539062 C 77.167969 328.9375 86.195312 289.84375 102.015625 253.90625 C 117.777344 217.945312 140.171875 185.3125 166.183594 158.40625 C 192.1875 131.445312 221.703125 110.3125 250.867188 95.054688 C 280.054688 79.722656 308.851562 70.347656 333.941406 64.660156 C 332.0625 66.296875 336.464844 66.558594 346.480469 66.210938 C 356.5 65.882812 372.203125 65.046875 392.96875 65.957031 C 413.691406 66.902344 439.496094 69.625 468.699219 77.464844 C 497.835938 85.285156 530.402344 98.382812 562.777344 119.527344 C 607.507812 148.507812 646.050781 190.195312 671.402344 237.433594 C 697.132812 284.570312 709.246094 336.609375 710.46875 383.878906 L 762.59375 383.878906 "/>
<g clip-path="url(#clip1)" clip-rule="nonzero">
<path style=" stroke:none;fill-rule:nonzero;fill:rgb(0%,0%,0%);fill-opacity:1;" d="M 700.90625 189.839844 C 709.1875 200.988281 718.589844 215.5 727.6875 233.320312 C 730.992188 236.640625 726.402344 218 707.484375 185.011719 C 688.515625 152.550781 653.101562 105.316406 592.148438 66.347656 C 554.363281 42.1875 510.433594 24.640625 465.683594 16.105469 C 420.898438 7.488281 375.757812 7.816406 335.246094 14.785156 C 294.648438 21.660156 258.957031 35.183594 230.867188 50 C 202.703125 64.851562 181.960938 80.746094 168.722656 92.585938 C 108.425781 146.25 68.289062 218.773438 54.957031 294.160156 C 41.3125 369.507812 53.789062 447.074219 87.6875 510.964844 C 95.210938 525.046875 99.796875 530.46875 100.386719 529.101562 C 101.089844 527.683594 97.878906 519.433594 92.828125 504.671875 C 87.8125 489.917969 81.066406 468.492188 76.511719 440.671875 C 72.105469 412.933594 69.941406 378.507812 75.308594 339.894531 C 82.867188 281.984375 108.308594 224.148438 144.277344 179.652344 C 179.964844 134.710938 224.839844 103.746094 262.558594 85.84375 C 266.292969 82.921875 274.738281 77.765625 289.195312 71.644531 C 356.148438 43.199219 435.015625 37.253906 509.292969 57.675781 C 583.597656 77.847656 652.683594 124.507812 700.90625 189.839844 Z M 66.65625 212.855469 C 72.160156 200.101562 80.03125 184.707031 90.898438 167.921875 C 92.121094 163.40625 78.292969 176.699219 59.183594 209.578125 C 40.542969 242.203125 17.359375 296.707031 14.5 368.953125 C 12.609375 413.671875 19.402344 460.460938 34.445312 503.457031 C 49.417969 546.503906 72.417969 585.507812 98.886719 616.914062 C 125.28125 648.472656 154.796875 672.5625 181.714844 689.40625 C 208.652344 706.359375 232.828125 716.328125 249.707031 721.878906 C 326.484375 747.175781 409.3125 745.03125 481.25 718.949219 C 553.390625 693.101562 613.980469 643.140625 652.3125 581.726562 C 660.78125 568.179688 663.140625 561.46875 661.671875 561.652344 C 660.109375 561.765625 654.535156 568.648438 644.300781 580.445312 C 634.007812 592.15625 618.886719 608.816406 597.078125 626.734375 C 575.316406 644.578125 546.714844 663.710938 510.640625 678.429688 C 456.773438 700.859375 393.824219 707.894531 337.277344 699.246094 C 280.496094 691.140625 231.300781 667.703125 196.859375 644.050781 C 192.472656 642.261719 183.78125 637.527344 171.195312 628.105469 C 112.882812 584.503906 68.058594 519.464844 48.574219 444.894531 C 28.882812 370.554688 34.054688 287.34375 66.65625 212.855469 Z M 707.867188 383.882812 C 706.742188 331.226562 691.832031 274.90625 661.925781 225.585938 C 632.390625 176.125 588.179688 134.464844 538.015625 107.773438 C 478.78125 76.078125 420.300781 68.496094 375.332031 69.652344 C 330.03125 70.898438 297.578125 80.097656 279.09375 85.003906 C 225.234375 106.558594 170.816406 147.105469 132.992188 202.90625 C 94.738281 258.285156 74.761719 327.898438 77.53125 394.898438 C 79.832031 462.109375 102.496094 516.503906 126.109375 554.679688 C 149.992188 593.148438 174.347656 616.613281 187.84375 630.171875 C 233.601562 665.972656 295.769531 692.84375 363.050781 697.285156 C 430.265625 702.425781 500.613281 684.976562 557.03125 648.929688 C 613.90625 613.113281 649.714844 566.074219 670.949219 526.59375 C 692.296875 486.695312 700.28125 453.902344 705.207031 435.425781 C 707.410156 418.917969 708.328125 401.597656 707.925781 383.886719 L 713.324219 383.886719 C 713.753906 396.882812 713.449219 409.222656 712.65625 420.648438 C 713.410156 425.34375 713.597656 435.230469 711.835938 450.832031 C 703.523438 523.121094 669.402344 594.394531 614.796875 648.734375 C 560.558594 703.316406 485.753906 740.421875 405.039062 749.59375 C 391.25 751.230469 374.007812 752.199219 354.023438 751.277344 C 349.511719 752.453125 367.96875 757.746094 405.949219 757.699219 C 443.484375 757.421875 502.285156 750.269531 566.292969 716.4375 C 599.03125 699.140625 629.96875 676.160156 656.371094 649.160156 C 682.800781 622.199219 704.660156 591.320312 720.820312 559.535156 C 753.71875 495.765625 761.808594 429.761719 759.367188 383.886719 L 765.53125 383.886719 C 766.457031 418.210938 762.578125 455.257812 752.230469 492.332031 C 741.964844 529.398438 725.234375 566.402344 702.296875 600.238281 C 656.878906 668.269531 585.519531 722.097656 507.675781 746.65625 C 468.734375 759.257812 430.847656 764.289062 396.71875 764.535156 C 362.53125 764.847656 331.878906 760.328125 305.824219 753.882812 C 253.539062 740.65625 220.03125 720.507812 203.476562 709 C 142.742188 676.679688 82.980469 619.984375 47.054688 545.808594 C 10.425781 472.101562 0.0507812 382.988281 17.734375 303.140625 C 35.136719 222.726562 75.703125 163.078125 112.898438 125.011719 C 150.558594 86.535156 184.710938 67.625 202.964844 59.066406 C 232.316406 41 266.492188 25.875 303.914062 16.339844 C 341.3125 6.742188 381.804688 2.863281 422.691406 5.78125 C 463.601562 8.652344 504.925781 18.5 543.328125 35.109375 C 581.792969 51.589844 617.214844 74.769531 647.390625 102.277344 C 707.503906 157.207031 738.992188 221.429688 753.429688 272.574219 C 767.949219 324.277344 767.242188 363.394531 765.582031 383.882812 L 759.242188 383.882812 C 758.332031 365.511719 756.144531 350.109375 753.757812 338.496094 C 737.78125 259.292969 694.878906 188.347656 636.429688 138.957031 C 578.164062 89.183594 504.839844 61.074219 432.5 58.398438 C 416.535156 57.847656 409.539062 59.082031 410.425781 60.28125 C 411.296875 61.601562 420.054688 62.96875 435.371094 66.007812 C 450.667969 69.042969 472.601562 73.945312 498.945312 83.96875 C 525.214844 94.007812 555.933594 109.449219 586.644531 133.5 C 626.039062 164.183594 659.449219 205.703125 680.789062 250.628906 C 702.488281 295.480469 712 343.007812 713.242188 383.882812 L 707.867188 383.882812 "/>
</g>
<g clip-path="url(#clip2)" clip-rule="nonzero">
<path style=" stroke:none;fill-rule:nonzero;fill:rgb(95.689392%,26.269531%,21.179199%);fill-opacity:1;" d="M 674.46875 263.0625 L 113.84375 263.0625 L 113.84375 212.078125 L 674.46875 212.078125 Z M 674.46875 263.0625 "/>
<path style=" stroke:none;fill-rule:nonzero;fill:rgb(95.689392%,26.269531%,21.179199%);fill-opacity:1;" d="M 674.46875 263.0625 L 113.84375 263.0625 L 113.84375 212.078125 L 674.46875 212.078125 Z M 674.46875 263.0625 "/>
</g>
<g clip-path="url(#clip3)" clip-rule="nonzero">
<path style=" stroke:none;fill-rule:nonzero;fill:rgb(100%,59.609985%,0%);fill-opacity:1;" d="M 674.46875 314.046875 L 113.84375 314.046875 L 113.84375 263.0625 L 674.46875 263.0625 Z M 674.46875 314.046875 "/>
<path style=" stroke:none;fill-rule:nonzero;fill:rgb(100%,59.609985%,0%);fill-opacity:1;" d="M 674.46875 314.046875 L 113.84375 314.046875 L 113.84375 263.0625 L 674.46875 263.0625 Z M 674.46875 314.046875 "/>
</g>
<g clip-path="url(#clip4)" clip-rule="nonzero">
<path style=" stroke:none;fill-rule:nonzero;fill:rgb(100%,75.689697%,2.749634%);fill-opacity:1;" d="M 674.46875 365.035156 L 113.84375 365.035156 L 113.84375 314.046875 L 674.46875 314.046875 Z M 674.46875 365.035156 "/>
<path style=" stroke:none;fill-rule:nonzero;fill:rgb(100%,75.689697%,2.749634%);fill-opacity:1;" d="M 674.46875 365.035156 L 113.84375 365.035156 L 113.84375 314.046875 L 674.46875 314.046875 Z M 674.46875 365.035156 "/>
</g>
<g clip-path="url(#clip5)" clip-rule="nonzero">
<path style=" stroke:none;fill-rule:nonzero;fill:rgb(54.508972%,76.469421%,29.019165%);fill-opacity:1;" d="M 674.46875 416.019531 L 113.84375 416.019531 L 113.84375 365.035156 L 674.46875 365.035156 Z M 674.46875 416.019531 "/>
<path style=" stroke:none;fill-rule:nonzero;fill:rgb(29.798889%,68.629456%,31.369019%);fill-opacity:1;" d="M 674.46875 416.019531 L 113.84375 416.019531 L 113.84375 365.035156 L 674.46875 365.035156 Z M 674.46875 416.019531 "/>
</g>
<g clip-path="url(#clip6)" clip-rule="nonzero">
<path style=" stroke:none;fill-rule:nonzero;fill:rgb(12.939453%,58.81958%,95.289612%);fill-opacity:1;" d="M 674.46875 467.003906 L 113.84375 467.003906 L 113.84375 416.019531 L 674.46875 416.019531 Z M 674.46875 467.003906 "/>
</g>
<g clip-path="url(#clip7)" clip-rule="nonzero">
<path style=" stroke:none;fill-rule:nonzero;fill:rgb(24.708557%,31.759644%,70.979309%);fill-opacity:1;" d="M 674.46875 517.988281 L 113.84375 517.988281 L 113.84375 467.003906 L 674.46875 467.003906 Z M 674.46875 517.988281 "/>
</g>
<g clip-path="url(#clip8)" clip-rule="nonzero">
<path style=" stroke:none;fill-rule:nonzero;fill:rgb(61.178589%,15.289307%,69.018555%);fill-opacity:1;" d="M 674.46875 568.972656 L 113.84375 568.972656 L 113.84375 517.988281 L 674.46875 517.988281 Z M 674.46875 568.972656 "/>
</g>
<g clip-path="url(#clip9)" clip-rule="nonzero">
<path style=" stroke:none;fill-rule:nonzero;fill:rgb(100%,100%,100%);fill-opacity:1;" d="M 536.375 420.519531 L 336.230469 556.695312 C 330.328125 560.714844 323.449219 562.675781 316.59375 562.566406 C 311.265625 562.445312 306.007812 561.089844 301.152344 558.472656 C 290.054688 552.460938 283.226562 540.769531 283.46875 528.121094 L 288.804688 248.210938 C 289.066406 235.59375 296.328125 224.140625 307.65625 218.550781 C 318.988281 212.972656 332.488281 214.179688 342.632812 221.667969 L 537.433594 365.425781 C 546.25 371.910156 551.367188 382.292969 551.15625 393.242188 C 550.953125 404.191406 545.425781 414.367188 536.375 420.519531 Z M 384.003906 -0.0234375 C 171.921875 -0.0234375 -0.0351562 171.902344 -0.0351562 383.992188 C -0.0351562 596.09375 171.921875 768.023438 384.003906 768.023438 C 596.105469 768.023438 768.03125 596.09375 768.03125 383.992188 C 768.03125 171.902344 596.105469 -0.0234375 384.003906 -0.0234375 "/>
</g>
</g>
</svg>
