<?xml version="1.0" encoding="UTF-8"?>
<svg xmlns="http://www.w3.org/2000/svg" xmlns:xlink="http://www.w3.org/1999/xlink" width="768pt" height="767.999994pt" viewBox="0 0 768 767.999994" version="1.2">
<defs>
<clipPath id="clip1">
  <path d="M 251.566406 299.738281 L 524.238281 299.738281 L 524.238281 325 L 251.566406 325 Z M 251.566406 299.738281 "/>
</clipPath>
<clipPath id="clip2">
  <path d="M 251.566406 324 L 524.238281 324 L 524.238281 350 L 251.566406 350 Z M 251.566406 324 "/>
</clipPath>
<clipPath id="clip3">
  <path d="M 251.566406 349 L 524.238281 349 L 524.238281 375 L 251.566406 375 Z M 251.566406 349 "/>
</clipPath>
<clipPath id="clip4">
  <path d="M 251.566406 374 L 524.238281 374 L 524.238281 400 L 251.566406 400 Z M 251.566406 374 "/>
</clipPath>
<clipPath id="clip5">
  <path d="M 251.566406 399 L 524.238281 399 L 524.238281 425 L 251.566406 425 Z M 251.566406 399 "/>
</clipPath>
<clipPath id="clip6">
  <path d="M 251.566406 424 L 524.238281 424 L 524.238281 449 L 251.566406 449 Z M 251.566406 424 "/>
</clipPath>
<clipPath id="clip7">
  <path d="M 251.566406 448 L 524.238281 448 L 524.238281 473.738281 L 251.566406 473.738281 Z M 251.566406 448 "/>
</clipPath>
<clipPath id="clip8">
  <path d="M 194.308594 194.308594 L 573.808594 194.308594 L 573.808594 573.808594 L 194.308594 573.808594 Z M 194.308594 194.308594 "/>
</clipPath>
<clipPath id="clip9">
  <path d="M 234.910156 233.371094 L 541.660156 233.371094 L 541.660156 540.121094 L 234.910156 540.121094 Z M 234.910156 233.371094 "/>
</clipPath>
</defs>
<g id="surface1">
<path style=" stroke:none;fill-rule:nonzero;fill:rgb(100%,100%,100%);fill-opacity:1;" d="M 384 78.808594 C 379.003906 78.808594 374.011719 78.929688 369.023438 79.175781 C 364.035156 79.421875 359.054688 79.789062 354.085938 80.277344 C 349.117188 80.769531 344.160156 81.378906 339.21875 82.113281 C 334.277344 82.84375 329.359375 83.699219 324.460938 84.671875 C 319.5625 85.648438 314.691406 86.742188 309.84375 87.957031 C 305 89.167969 300.1875 90.5 295.40625 91.949219 C 290.628906 93.398438 285.886719 94.964844 281.183594 96.648438 C 276.480469 98.332031 271.824219 100.128906 267.207031 102.039062 C 262.59375 103.953125 258.027344 105.976562 253.515625 108.109375 C 249 110.246094 244.539062 112.492188 240.132812 114.84375 C 235.730469 117.199219 231.382812 119.660156 227.101562 122.230469 C 222.816406 124.796875 218.597656 127.46875 214.445312 130.242188 C 210.292969 133.019531 206.210938 135.894531 202.199219 138.867188 C 198.1875 141.84375 194.25 144.914062 190.390625 148.085938 C 186.527344 151.253906 182.746094 154.515625 179.046875 157.867188 C 175.34375 161.222656 171.730469 164.664062 168.199219 168.199219 C 164.664062 171.730469 161.222656 175.34375 157.867188 179.046875 C 154.515625 182.746094 151.253906 186.527344 148.085938 190.390625 C 144.914062 194.25 141.84375 198.1875 138.867188 202.199219 C 135.894531 206.210938 133.019531 210.292969 130.242188 214.445312 C 127.46875 218.597656 124.796875 222.816406 122.230469 227.101562 C 119.660156 231.382812 117.199219 235.730469 114.84375 240.132812 C 112.492188 244.539062 110.246094 249 108.109375 253.515625 C 105.976562 258.027344 103.953125 262.59375 102.039062 267.207031 C 100.128906 271.824219 98.332031 276.480469 96.648438 281.183594 C 94.964844 285.886719 93.398438 290.628906 91.949219 295.40625 C 90.5 300.1875 89.167969 305 87.957031 309.84375 C 86.742188 314.691406 85.648438 319.5625 84.671875 324.460938 C 83.699219 329.359375 82.84375 334.277344 82.113281 339.21875 C 81.378906 344.160156 80.769531 349.117188 80.277344 354.085938 C 79.789062 359.058594 79.421875 364.035156 79.175781 369.023438 C 78.929688 374.011719 78.808594 379.003906 78.808594 384 C 78.808594 388.996094 78.929688 393.984375 79.175781 398.976562 C 79.421875 403.964844 79.789062 408.941406 80.277344 413.914062 C 80.769531 418.882812 81.378906 423.839844 82.113281 428.78125 C 82.84375 433.722656 83.699219 438.640625 84.671875 443.539062 C 85.648438 448.4375 86.742188 453.308594 87.957031 458.15625 C 89.167969 463 90.5 467.8125 91.949219 472.59375 C 93.398438 477.371094 94.964844 482.113281 96.648438 486.816406 C 98.332031 491.519531 100.128906 496.175781 102.039062 500.792969 C 103.953125 505.40625 105.976562 509.972656 108.109375 514.484375 C 110.246094 519 112.492188 523.460938 114.84375 527.867188 C 117.199219 532.269531 119.660156 536.617188 122.230469 540.898438 C 124.796875 545.183594 127.46875 549.402344 130.242188 553.554688 C 133.019531 557.707031 135.894531 561.789062 138.867188 565.800781 C 141.84375 569.8125 144.914062 573.75 148.085938 577.609375 C 151.253906 581.472656 154.515625 585.253906 157.867188 588.953125 C 161.222656 592.65625 164.664062 596.269531 168.199219 599.800781 C 171.730469 603.335938 175.34375 606.777344 179.046875 610.132812 C 182.746094 613.484375 186.527344 616.746094 190.390625 619.914062 C 194.25 623.085938 198.1875 626.15625 202.199219 629.132812 C 206.210938 632.105469 210.292969 634.980469 214.445312 637.757812 C 218.597656 640.53125 222.816406 643.203125 227.101562 645.769531 C 231.382812 648.339844 235.730469 650.800781 240.132812 653.15625 C 244.539062 655.507812 249 657.753906 253.515625 659.890625 C 258.027344 662.023438 262.59375 664.046875 267.207031 665.960938 C 271.824219 667.871094 276.480469 669.667969 281.183594 671.351562 C 285.886719 673.035156 290.628906 674.601562 295.40625 676.050781 C 300.1875 677.5 305 678.832031 309.84375 680.042969 C 314.691406 681.257812 319.5625 682.351562 324.460938 683.328125 C 329.359375 684.300781 334.277344 685.15625 339.21875 685.886719 C 344.160156 686.621094 349.117188 687.230469 354.085938 687.722656 C 359.054688 688.210938 364.035156 688.578125 369.023438 688.824219 C 374.011719 689.070312 379.003906 689.191406 384 689.191406 C 388.996094 689.191406 393.984375 689.070312 398.976562 688.824219 C 403.964844 688.578125 408.941406 688.210938 413.914062 687.722656 C 418.882812 687.230469 423.839844 686.621094 428.78125 685.886719 C 433.722656 685.15625 438.640625 684.300781 443.539062 683.328125 C 448.4375 682.351562 453.308594 681.257812 458.15625 680.042969 C 463 678.832031 467.8125 677.5 472.59375 676.050781 C 477.371094 674.601562 482.113281 673.035156 486.816406 671.351562 C 491.519531 669.667969 496.175781 667.871094 500.792969 665.960938 C 505.40625 664.046875 509.972656 662.023438 514.484375 659.890625 C 519 657.753906 523.460938 655.507812 527.867188 653.15625 C 532.269531 650.800781 536.617188 648.339844 540.898438 645.769531 C 545.183594 643.203125 549.402344 640.53125 553.554688 637.757812 C 557.707031 634.980469 561.789062 632.105469 565.800781 629.132812 C 569.8125 626.15625 573.75 623.085938 577.609375 619.914062 C 581.472656 616.746094 585.253906 613.484375 588.953125 610.132812 C 592.65625 606.777344 596.269531 603.335938 599.800781 599.800781 C 603.335938 596.269531 606.777344 592.65625 610.132812 588.953125 C 613.484375 585.253906 616.746094 581.472656 619.914062 577.609375 C 623.085938 573.75 626.15625 569.8125 629.132812 565.800781 C 632.105469 561.789062 634.980469 557.707031 637.757812 553.554688 C 640.53125 549.402344 643.203125 545.183594 645.769531 540.898438 C 648.339844 536.617188 650.800781 532.269531 653.15625 527.867188 C 655.507812 523.460938 657.753906 519 659.890625 514.484375 C 662.023438 509.972656 664.046875 505.40625 665.960938 500.792969 C 667.871094 496.175781 669.667969 491.519531 671.351562 486.816406 C 673.035156 482.113281 674.597656 477.371094 676.050781 472.59375 C 677.5 467.8125 678.832031 463 680.042969 458.15625 C 681.257812 453.308594 682.351562 448.4375 683.328125 443.539062 C 684.300781 438.640625 685.15625 433.722656 685.886719 428.78125 C 686.621094 423.839844 687.230469 418.882812 687.722656 413.914062 C 688.210938 408.941406 688.578125 403.964844 688.824219 398.976562 C 689.070312 393.984375 689.191406 388.996094 689.191406 384 C 689.191406 379.003906 689.070312 374.011719 688.824219 369.023438 C 688.578125 364.035156 688.210938 359.058594 687.722656 354.085938 C 687.230469 349.117188 686.621094 344.160156 685.886719 339.21875 C 685.15625 334.277344 684.300781 329.359375 683.328125 324.460938 C 682.351562 319.5625 681.257812 314.691406 680.042969 309.84375 C 678.832031 305 677.5 300.1875 676.050781 295.40625 C 674.597656 290.628906 673.035156 285.886719 671.351562 281.183594 C 669.667969 276.480469 667.871094 271.824219 665.960938 267.207031 C 664.046875 262.59375 662.023438 258.027344 659.890625 253.515625 C 657.753906 249 655.507812 244.539062 653.15625 240.132812 C 650.800781 235.730469 648.339844 231.382812 645.769531 227.101562 C 643.203125 222.816406 640.53125 218.597656 637.757812 214.445312 C 634.980469 210.292969 632.105469 206.210938 629.132812 202.199219 C 626.15625 198.1875 623.085938 194.25 619.914062 190.390625 C 616.746094 186.527344 613.484375 182.746094 610.132812 179.046875 C 606.777344 175.34375 603.335938 171.730469 599.800781 168.199219 C 596.269531 164.664062 592.65625 161.222656 588.953125 157.867188 C 585.253906 154.515625 581.472656 151.253906 577.609375 148.085938 C 573.75 144.914062 569.8125 141.84375 565.800781 138.867188 C 561.789062 135.894531 557.707031 133.019531 553.554688 130.242188 C 549.402344 127.46875 545.183594 124.796875 540.898438 122.230469 C 536.617188 119.660156 532.269531 117.199219 527.867188 114.84375 C 523.460938 112.492188 519 110.246094 514.484375 108.109375 C 509.972656 105.976562 505.40625 103.953125 500.792969 102.039062 C 496.175781 100.128906 491.519531 98.332031 486.816406 96.648438 C 482.113281 94.964844 477.371094 93.398438 472.59375 91.949219 C 467.8125 90.5 463 89.167969 458.15625 87.957031 C 453.308594 86.742188 448.4375 85.648438 443.539062 84.671875 C 438.640625 83.699219 433.722656 82.84375 428.78125 82.113281 C 423.839844 81.378906 418.882812 80.769531 413.914062 80.277344 C 408.941406 79.789062 403.964844 79.421875 398.976562 79.175781 C 393.984375 78.929688 388.996094 78.808594 384 78.808594 Z M 384 78.808594 "/>
<g clip-path="url(#clip1)" clip-rule="nonzero">
<path style=" stroke:none;fill-rule:nonzero;fill:rgb(95.689392%,26.269531%,21.179199%);fill-opacity:1;" d="M 524.214844 324.609375 L 251.585938 324.609375 L 251.585938 299.738281 L 524.214844 299.738281 Z M 524.214844 324.609375 "/>
<path style=" stroke:none;fill-rule:nonzero;fill:rgb(95.689392%,26.269531%,21.179199%);fill-opacity:1;" d="M 524.214844 324.609375 L 251.585938 324.609375 L 251.585938 299.738281 L 524.214844 299.738281 Z M 524.214844 324.609375 "/>
</g>
<g clip-path="url(#clip2)" clip-rule="nonzero">
<path style=" stroke:none;fill-rule:nonzero;fill:rgb(100%,59.609985%,0%);fill-opacity:1;" d="M 524.214844 349.480469 L 251.585938 349.480469 L 251.585938 324.609375 L 524.214844 324.609375 Z M 524.214844 349.480469 "/>
<path style=" stroke:none;fill-rule:nonzero;fill:rgb(100%,59.609985%,0%);fill-opacity:1;" d="M 524.214844 349.480469 L 251.585938 349.480469 L 251.585938 324.609375 L 524.214844 324.609375 Z M 524.214844 349.480469 "/>
</g>
<g clip-path="url(#clip3)" clip-rule="nonzero">
<path style=" stroke:none;fill-rule:nonzero;fill:rgb(100%,75.689697%,2.749634%);fill-opacity:1;" d="M 524.214844 374.347656 L 251.585938 374.347656 L 251.585938 349.480469 L 524.214844 349.480469 Z M 524.214844 374.347656 "/>
<path style=" stroke:none;fill-rule:nonzero;fill:rgb(100%,75.689697%,2.749634%);fill-opacity:1;" d="M 524.214844 374.347656 L 251.585938 374.347656 L 251.585938 349.480469 L 524.214844 349.480469 Z M 524.214844 374.347656 "/>
</g>
<g clip-path="url(#clip4)" clip-rule="nonzero">
<path style=" stroke:none;fill-rule:nonzero;fill:rgb(54.508972%,76.469421%,29.019165%);fill-opacity:1;" d="M 524.214844 399.21875 L 251.585938 399.21875 L 251.585938 374.347656 L 524.214844 374.347656 Z M 524.214844 399.21875 "/>
<path style=" stroke:none;fill-rule:nonzero;fill:rgb(29.798889%,68.629456%,31.369019%);fill-opacity:1;" d="M 524.214844 399.21875 L 251.585938 399.21875 L 251.585938 374.347656 L 524.214844 374.347656 Z M 524.214844 399.21875 "/>
</g>
<g clip-path="url(#clip5)" clip-rule="nonzero">
<path style=" stroke:none;fill-rule:nonzero;fill:rgb(12.939453%,58.81958%,95.289612%);fill-opacity:1;" d="M 524.214844 424.089844 L 251.585938 424.089844 L 251.585938 399.21875 L 524.214844 399.21875 Z M 524.214844 424.089844 "/>
</g>
<g clip-path="url(#clip6)" clip-rule="nonzero">
<path style=" stroke:none;fill-rule:nonzero;fill:rgb(24.708557%,31.759644%,70.979309%);fill-opacity:1;" d="M 524.214844 448.960938 L 251.585938 448.960938 L 251.585938 424.089844 L 524.214844 424.089844 Z M 524.214844 448.960938 "/>
</g>
<g clip-path="url(#clip7)" clip-rule="nonzero">
<path style=" stroke:none;fill-rule:nonzero;fill:rgb(61.178589%,15.289307%,69.018555%);fill-opacity:1;" d="M 524.214844 473.832031 L 251.585938 473.832031 L 251.585938 448.960938 L 524.214844 448.960938 Z M 524.214844 473.832031 "/>
</g>
<g clip-path="url(#clip8)" clip-rule="nonzero">
<path style=" stroke:none;fill-rule:nonzero;fill:rgb(100%,100%,100%);fill-opacity:1;" d="M 459.351562 402.101562 L 360.453125 469.390625 C 357.535156 471.378906 354.136719 472.347656 350.75 472.292969 C 348.117188 472.234375 345.519531 471.5625 343.117188 470.273438 C 337.632812 467.300781 334.261719 461.523438 334.378906 455.273438 L 337.019531 316.957031 C 337.148438 310.722656 340.734375 305.0625 346.332031 302.300781 C 351.929688 299.542969 358.601562 300.140625 363.617188 303.84375 L 459.875 374.878906 C 464.230469 378.082031 466.757812 383.214844 466.65625 388.625 C 466.554688 394.035156 463.824219 399.0625 459.351562 402.101562 Z M 384.058594 194.292969 C 279.261719 194.292969 194.289062 279.25 194.289062 384.054688 C 194.289062 488.863281 279.261719 573.816406 384.058594 573.816406 C 488.867188 573.816406 573.824219 488.863281 573.824219 384.054688 C 573.824219 279.25 488.867188 194.292969 384.058594 194.292969 "/>
</g>
<g clip-path="url(#clip9)" clip-rule="nonzero">
<path style=" stroke:none;fill-rule:nonzero;fill:rgb(0%,0%,0%);fill-opacity:1;" d="M 388.285156 540.121094 C 303.714844 540.121094 234.910156 471.316406 234.910156 386.746094 C 234.910156 302.175781 303.714844 233.371094 388.285156 233.371094 C 472.855469 233.371094 541.660156 302.175781 541.660156 386.746094 C 541.660156 471.316406 472.855469 540.121094 388.285156 540.121094 Z M 388.285156 236.089844 C 305.214844 236.089844 237.628906 303.671875 237.628906 386.746094 C 237.628906 469.820312 305.214844 537.402344 388.285156 537.402344 C 471.359375 537.402344 538.941406 469.820312 538.941406 386.746094 C 538.941406 303.671875 471.359375 236.089844 388.285156 236.089844 Z M 388.285156 236.089844 "/>
</g>
</g>
</svg>
