<?xml version="1.0" encoding="UTF-8"?>
<svg xmlns="http://www.w3.org/2000/svg" xmlns:xlink="http://www.w3.org/1999/xlink" width="768pt" height="767.999994pt" viewBox="0 0 768 767.999994" version="1.2">
<defs>
<clipPath id="clip1">
  <path d="M 126.507812 221.976562 L 641.441406 221.976562 L 641.441406 269 L 126.507812 269 Z M 126.507812 221.976562 "/>
</clipPath>
<clipPath id="clip2">
  <path d="M 126.507812 268 L 641.441406 268 L 641.441406 316 L 126.507812 316 Z M 126.507812 268 "/>
</clipPath>
<clipPath id="clip3">
  <path d="M 126.507812 315 L 641.441406 315 L 641.441406 363 L 126.507812 363 Z M 126.507812 315 "/>
</clipPath>
<clipPath id="clip4">
  <path d="M 126.507812 362 L 641.441406 362 L 641.441406 410 L 126.507812 410 Z M 126.507812 362 "/>
</clipPath>
<clipPath id="clip5">
  <path d="M 126.507812 409 L 641.441406 409 L 641.441406 456 L 126.507812 456 Z M 126.507812 409 "/>
</clipPath>
<clipPath id="clip6">
  <path d="M 126.507812 455 L 641.441406 455 L 641.441406 503 L 126.507812 503 Z M 126.507812 455 "/>
</clipPath>
<clipPath id="clip7">
  <path d="M 126.507812 502 L 641.441406 502 L 641.441406 549.445312 L 126.507812 549.445312 Z M 126.507812 502 "/>
</clipPath>
<clipPath id="clip8">
  <path d="M 25.664062 28.503906 L 736.664062 28.503906 L 736.664062 739.503906 L 25.664062 739.503906 Z M 25.664062 28.503906 "/>
</clipPath>
<clipPath id="clip9">
  <path d="M 0.292969 0 L 768 0 L 768 768 L 0.292969 768 Z M 0.292969 0 "/>
</clipPath>
<clipPath id="clip10">
  <path d="M 0.292969 0.292969 L 768 0.292969 L 768 768 L 0.292969 768 Z M 0.292969 0.292969 "/>
</clipPath>
</defs>
<g id="surface1">
<g clip-path="url(#clip1)" clip-rule="nonzero">
<path style=" stroke:none;fill-rule:nonzero;fill:rgb(95.689392%,26.269531%,21.179199%);fill-opacity:1;" d="M 641.394531 268.757812 L 126.550781 268.757812 L 126.550781 221.976562 L 641.394531 221.976562 Z M 641.394531 268.757812 "/>
<path style=" stroke:none;fill-rule:nonzero;fill:rgb(95.689392%,26.269531%,21.179199%);fill-opacity:1;" d="M 641.394531 268.757812 L 126.550781 268.757812 L 126.550781 221.976562 L 641.394531 221.976562 Z M 641.394531 268.757812 "/>
</g>
<g clip-path="url(#clip2)" clip-rule="nonzero">
<path style=" stroke:none;fill-rule:nonzero;fill:rgb(100%,59.609985%,0%);fill-opacity:1;" d="M 641.394531 315.539062 L 126.550781 315.539062 L 126.550781 268.757812 L 641.394531 268.757812 Z M 641.394531 315.539062 "/>
<path style=" stroke:none;fill-rule:nonzero;fill:rgb(100%,59.609985%,0%);fill-opacity:1;" d="M 641.394531 315.539062 L 126.550781 315.539062 L 126.550781 268.757812 L 641.394531 268.757812 Z M 641.394531 315.539062 "/>
</g>
<g clip-path="url(#clip3)" clip-rule="nonzero">
<path style=" stroke:none;fill-rule:nonzero;fill:rgb(100%,75.689697%,2.749634%);fill-opacity:1;" d="M 641.394531 362.320312 L 126.550781 362.320312 L 126.550781 315.539062 L 641.394531 315.539062 Z M 641.394531 362.320312 "/>
<path style=" stroke:none;fill-rule:nonzero;fill:rgb(100%,75.689697%,2.749634%);fill-opacity:1;" d="M 641.394531 362.320312 L 126.550781 362.320312 L 126.550781 315.539062 L 641.394531 315.539062 Z M 641.394531 362.320312 "/>
</g>
<g clip-path="url(#clip4)" clip-rule="nonzero">
<path style=" stroke:none;fill-rule:nonzero;fill:rgb(54.508972%,76.469421%,29.019165%);fill-opacity:1;" d="M 641.394531 409.101562 L 126.550781 409.101562 L 126.550781 362.320312 L 641.394531 362.320312 Z M 641.394531 409.101562 "/>
<path style=" stroke:none;fill-rule:nonzero;fill:rgb(29.798889%,68.629456%,31.369019%);fill-opacity:1;" d="M 641.394531 409.101562 L 126.550781 409.101562 L 126.550781 362.320312 L 641.394531 362.320312 Z M 641.394531 409.101562 "/>
</g>
<g clip-path="url(#clip5)" clip-rule="nonzero">
<path style=" stroke:none;fill-rule:nonzero;fill:rgb(12.939453%,58.81958%,95.289612%);fill-opacity:1;" d="M 641.394531 455.882812 L 126.550781 455.882812 L 126.550781 409.101562 L 641.394531 409.101562 Z M 641.394531 455.882812 "/>
</g>
<g clip-path="url(#clip6)" clip-rule="nonzero">
<path style=" stroke:none;fill-rule:nonzero;fill:rgb(24.708557%,31.759644%,70.979309%);fill-opacity:1;" d="M 641.394531 502.664062 L 126.550781 502.664062 L 126.550781 455.882812 L 641.394531 455.882812 Z M 641.394531 502.664062 "/>
</g>
<g clip-path="url(#clip7)" clip-rule="nonzero">
<path style=" stroke:none;fill-rule:nonzero;fill:rgb(61.178589%,15.289307%,69.018555%);fill-opacity:1;" d="M 641.394531 549.445312 L 126.550781 549.445312 L 126.550781 502.664062 L 641.394531 502.664062 Z M 641.394531 549.445312 "/>
</g>
<g clip-path="url(#clip8)" clip-rule="nonzero">
<path style=" stroke:none;fill-rule:nonzero;fill:rgb(100%,100%,100%);fill-opacity:1;" d="M 522.234375 417.8125 L 336.941406 543.878906 C 331.476562 547.601562 325.109375 549.417969 318.761719 549.316406 C 313.828125 549.203125 308.960938 547.949219 304.464844 545.527344 C 294.191406 539.960938 287.871094 529.136719 288.09375 517.429688 L 293.035156 258.289062 C 293.277344 246.609375 300 236.007812 310.488281 230.832031 C 320.976562 225.667969 333.476562 226.785156 342.867188 233.71875 L 523.210938 366.804688 C 531.371094 372.808594 536.109375 382.421875 535.914062 392.558594 C 535.730469 402.695312 530.609375 412.113281 522.234375 417.8125 Z M 381.167969 28.480469 C 184.828125 28.480469 25.632812 187.648438 25.632812 383.996094 C 25.632812 580.355469 184.828125 739.523438 381.167969 739.523438 C 577.527344 739.523438 736.695312 580.355469 736.695312 383.996094 C 736.695312 187.648438 577.527344 28.480469 381.167969 28.480469 "/>
</g>
<g clip-path="url(#clip9)" clip-rule="nonzero">
<path style=" stroke:none;fill-rule:nonzero;fill:rgb(0%,0%,0%);fill-opacity:1;" d="M 384.292969 38.398438 C 574.871094 38.398438 729.894531 193.421875 729.894531 384 C 729.894531 574.578125 574.871094 729.601562 384.292969 729.601562 C 193.714844 729.601562 38.695312 574.578125 38.695312 384 C 38.695312 193.421875 193.714844 38.398438 384.292969 38.398438 M 384.292969 0 C 172.210938 0 0.292969 171.917969 0.292969 384 C 0.292969 596.082031 172.210938 768 384.292969 768 C 596.375 768 768.292969 596.082031 768.292969 384 C 768.292969 171.917969 596.375 0 384.292969 0 Z M 384.292969 0 "/>
</g>
<g clip-path="url(#clip10)" clip-rule="nonzero">
<path style=" stroke:none;fill-rule:nonzero;fill:rgb(0%,0%,0%);fill-opacity:1;" d="M 384.292969 0.292969 C 172.585938 0.292969 0.292969 172.585938 0.292969 384.292969 C 0.292969 596 172.585938 768.292969 384.292969 768.292969 C 596 768.292969 768.292969 596 768.292969 384.292969 C 768.292969 172.585938 596 0.292969 384.292969 0.292969 Z M 384.292969 26.777344 C 581.414062 26.777344 741.8125 187.171875 741.8125 384.292969 C 741.8125 581.414062 581.414062 741.8125 384.292969 741.8125 C 187.171875 741.8125 26.777344 581.414062 26.777344 384.292969 C 26.777344 187.171875 187.171875 26.777344 384.292969 26.777344 Z M 378.8125 79.84375 C 348.8125 80.363281 318.863281 85.277344 290.363281 94.535156 C 283.429688 96.757812 279.65625 104.207031 281.878906 111.191406 C 283.691406 116.828125 288.863281 120.34375 294.5 120.34375 C 295.84375 120.34375 297.191406 120.136719 298.535156 119.671875 C 340.171875 106.222656 385.171875 102.8125 428.519531 109.742188 C 435.707031 110.929688 442.484375 105.964844 443.671875 98.777344 C 444.8125 91.535156 439.898438 84.757812 432.707031 83.570312 C 414.863281 80.722656 396.8125 79.484375 378.8125 79.84375 Z M 485.671875 98.105469 C 480.550781 98.3125 475.742188 101.570312 473.878906 106.691406 C 471.292969 113.570312 474.757812 121.171875 481.636719 123.757812 C 491.050781 127.277344 500.363281 131.3125 509.464844 135.863281 C 511.378906 136.84375 513.398438 137.3125 515.414062 137.3125 C 520.222656 137.3125 524.878906 134.671875 527.257812 130.019531 C 530.519531 123.550781 527.878906 115.535156 521.363281 112.222656 C 511.484375 107.257812 501.191406 102.757812 490.898438 98.929688 C 489.191406 98.3125 487.429688 98.050781 485.671875 98.105469 Z M 177.65625 529.949219 C 174.34375 529.429688 170.777344 530.15625 167.828125 532.328125 L 146.414062 547.949219 C 140.519531 552.242188 139.222656 560.519531 143.519531 566.414062 C 146.105469 569.984375 150.136719 571.84375 154.222656 571.84375 C 156.964844 571.84375 159.65625 571.070312 162.035156 569.3125 L 183.398438 553.742188 C 189.34375 549.449219 190.636719 541.121094 186.34375 535.222656 C 184.171875 532.277344 181.019531 530.464844 177.65625 529.949219 Z M 220.691406 578.671875 C 217.328125 579.035156 214.121094 580.691406 211.792969 583.535156 L 195.191406 604.171875 C 190.585938 609.863281 191.464844 618.191406 197.15625 622.792969 C 199.585938 624.757812 202.535156 625.691406 205.484375 625.691406 C 209.3125 625.691406 213.191406 624.035156 215.777344 620.777344 L 232.429688 600.136719 C 236.984375 594.449219 236.105469 586.121094 230.414062 581.519531 C 227.570312 579.242188 224.050781 578.3125 220.691406 578.671875 Z M 279.863281 613.742188 C 274.691406 613.636719 269.777344 616.585938 267.550781 621.605469 L 256.792969 645.8125 C 253.84375 652.484375 256.84375 660.292969 263.519531 663.242188 C 265.277344 664.070312 267.136719 664.429688 268.898438 664.429688 C 273.964844 664.429688 278.828125 661.484375 281 656.570312 L 291.757812 632.363281 C 294.707031 625.636719 291.707031 617.828125 284.984375 614.828125 C 283.328125 614.105469 281.570312 613.742188 279.863281 613.742188 Z M 346.378906 632.929688 C 339.085938 631.84375 332.363281 636.707031 331.222656 643.949219 L 327.136719 670.121094 C 326 677.363281 330.914062 684.085938 338.15625 685.277344 C 338.828125 685.378906 339.5 685.378906 340.222656 685.378906 C 346.585938 685.378906 352.222656 680.777344 353.257812 674.207031 L 357.398438 648.085938 C 358.535156 640.84375 353.621094 634.070312 346.378906 632.929688 Z M 410.3125 634.484375 C 403.019531 635.3125 397.742188 641.777344 398.519531 649.070312 L 401.3125 675.398438 C 402.085938 682.222656 407.777344 687.242188 414.5 687.242188 C 414.914062 687.242188 415.429688 687.242188 415.898438 687.191406 C 423.191406 686.363281 428.414062 679.898438 427.691406 672.605469 L 424.84375 646.277344 C 424.070312 638.984375 417.449219 633.757812 410.3125 634.484375 Z M 410.3125 634.484375 "/>
</g>
</g>
</svg>
