<?xml version="1.0" encoding="UTF-8"?>
<svg xmlns="http://www.w3.org/2000/svg" xmlns:xlink="http://www.w3.org/1999/xlink" width="768pt" height="767.999994pt" viewBox="0 0 768 767.999994" version="1.2">
<defs>
<clipPath id="clip1">
  <path d="M 251.566406 299.738281 L 524.238281 299.738281 L 524.238281 325 L 251.566406 325 Z M 251.566406 299.738281 "/>
</clipPath>
<clipPath id="clip2">
  <path d="M 251.566406 324 L 524.238281 324 L 524.238281 350 L 251.566406 350 Z M 251.566406 324 "/>
</clipPath>
<clipPath id="clip3">
  <path d="M 251.566406 349 L 524.238281 349 L 524.238281 375 L 251.566406 375 Z M 251.566406 349 "/>
</clipPath>
<clipPath id="clip4">
  <path d="M 251.566406 374 L 524.238281 374 L 524.238281 400 L 251.566406 400 Z M 251.566406 374 "/>
</clipPath>
<clipPath id="clip5">
  <path d="M 251.566406 399 L 524.238281 399 L 524.238281 425 L 251.566406 425 Z M 251.566406 399 "/>
</clipPath>
<clipPath id="clip6">
  <path d="M 251.566406 424 L 524.238281 424 L 524.238281 449 L 251.566406 449 Z M 251.566406 424 "/>
</clipPath>
<clipPath id="clip7">
  <path d="M 251.566406 448 L 524.238281 448 L 524.238281 473.738281 L 251.566406 473.738281 Z M 251.566406 448 "/>
</clipPath>
<clipPath id="clip8">
  <path d="M 296 687 L 329 687 L 329 698.964844 L 296 698.964844 Z M 296 687 "/>
</clipPath>
<clipPath id="clip9">
  <path d="M 194.308594 194.308594 L 573.808594 194.308594 L 573.808594 573.808594 L 194.308594 573.808594 Z M 194.308594 194.308594 "/>
</clipPath>
</defs>
<g id="surface1">
<g clip-path="url(#clip1)" clip-rule="nonzero">
<path style=" stroke:none;fill-rule:nonzero;fill:rgb(95.689392%,26.269531%,21.179199%);fill-opacity:1;" d="M 524.214844 324.609375 L 251.585938 324.609375 L 251.585938 299.738281 L 524.214844 299.738281 Z M 524.214844 324.609375 "/>
<path style=" stroke:none;fill-rule:nonzero;fill:rgb(95.689392%,26.269531%,21.179199%);fill-opacity:1;" d="M 524.214844 324.609375 L 251.585938 324.609375 L 251.585938 299.738281 L 524.214844 299.738281 Z M 524.214844 324.609375 "/>
</g>
<g clip-path="url(#clip2)" clip-rule="nonzero">
<path style=" stroke:none;fill-rule:nonzero;fill:rgb(100%,59.609985%,0%);fill-opacity:1;" d="M 524.214844 349.480469 L 251.585938 349.480469 L 251.585938 324.609375 L 524.214844 324.609375 Z M 524.214844 349.480469 "/>
<path style=" stroke:none;fill-rule:nonzero;fill:rgb(100%,59.609985%,0%);fill-opacity:1;" d="M 524.214844 349.480469 L 251.585938 349.480469 L 251.585938 324.609375 L 524.214844 324.609375 Z M 524.214844 349.480469 "/>
</g>
<g clip-path="url(#clip3)" clip-rule="nonzero">
<path style=" stroke:none;fill-rule:nonzero;fill:rgb(100%,75.689697%,2.749634%);fill-opacity:1;" d="M 524.214844 374.347656 L 251.585938 374.347656 L 251.585938 349.480469 L 524.214844 349.480469 Z M 524.214844 374.347656 "/>
<path style=" stroke:none;fill-rule:nonzero;fill:rgb(100%,75.689697%,2.749634%);fill-opacity:1;" d="M 524.214844 374.347656 L 251.585938 374.347656 L 251.585938 349.480469 L 524.214844 349.480469 Z M 524.214844 374.347656 "/>
</g>
<g clip-path="url(#clip4)" clip-rule="nonzero">
<path style=" stroke:none;fill-rule:nonzero;fill:rgb(54.508972%,76.469421%,29.019165%);fill-opacity:1;" d="M 524.214844 399.21875 L 251.585938 399.21875 L 251.585938 374.347656 L 524.214844 374.347656 Z M 524.214844 399.21875 "/>
<path style=" stroke:none;fill-rule:nonzero;fill:rgb(29.798889%,68.629456%,31.369019%);fill-opacity:1;" d="M 524.214844 399.21875 L 251.585938 399.21875 L 251.585938 374.347656 L 524.214844 374.347656 Z M 524.214844 399.21875 "/>
</g>
<g clip-path="url(#clip5)" clip-rule="nonzero">
<path style=" stroke:none;fill-rule:nonzero;fill:rgb(12.939453%,58.81958%,95.289612%);fill-opacity:1;" d="M 524.214844 424.089844 L 251.585938 424.089844 L 251.585938 399.21875 L 524.214844 399.21875 Z M 524.214844 424.089844 "/>
</g>
<g clip-path="url(#clip6)" clip-rule="nonzero">
<path style=" stroke:none;fill-rule:nonzero;fill:rgb(24.708557%,31.759644%,70.979309%);fill-opacity:1;" d="M 524.214844 448.960938 L 251.585938 448.960938 L 251.585938 424.089844 L 524.214844 424.089844 Z M 524.214844 448.960938 "/>
</g>
<g clip-path="url(#clip7)" clip-rule="nonzero">
<path style=" stroke:none;fill-rule:nonzero;fill:rgb(61.178589%,15.289307%,69.018555%);fill-opacity:1;" d="M 524.214844 473.832031 L 251.585938 473.832031 L 251.585938 448.960938 L 524.214844 448.960938 Z M 524.214844 473.832031 "/>
</g>
<path style=" stroke:none;fill-rule:nonzero;fill:rgb(100%,0%,0%);fill-opacity:1;" d="M 685.332031 379.226562 C 685.375 381.464844 685.410156 383.695312 685.410156 385.945312 C 685.410156 383.695312 685.375 381.457031 685.332031 379.226562 "/>
<path style=" stroke:none;fill-rule:nonzero;fill:rgb(100%,0%,0%);fill-opacity:1;" d="M 685.332031 392.664062 C 685.375 390.433594 685.410156 388.191406 685.410156 385.945312 C 685.410156 388.191406 685.375 390.433594 685.332031 392.664062 "/>
<path style=" stroke:none;fill-rule:nonzero;fill:rgb(100%,0%,0%);fill-opacity:1;" d="M 590.121094 195.515625 C 589.761719 195.453125 589.410156 195.382812 589.058594 195.3125 C 587.679688 194.039062 586.300781 192.941406 585.019531 191.941406 C 582.375 189.902344 579.824219 188.578125 577.726562 187.523438 C 573.535156 185.398438 571.214844 184.265625 572.535156 181.53125 C 573.183594 180.109375 576.996094 179.082031 582.011719 178.355469 C 589.832031 184.265625 597.308594 190.605469 604.40625 197.34375 C 603.679688 197.289062 602.941406 197.226562 602.210938 197.167969 C 597.933594 196.769531 593.890625 196.21875 590.121094 195.515625 Z M 434.855469 141.386719 C 431.234375 140.703125 428.1875 139.621094 424.664062 139.296875 C 421.15625 138.9375 417.125 139.429688 411.667969 142.175781 C 408.855469 143.582031 407.003906 145.179688 406 146.894531 C 404.929688 146.851562 403.902344 146.839844 402.945312 146.886719 C 400.351562 147.0625 398.175781 147.578125 396.398438 147.957031 C 392.851562 148.738281 390.898438 149.195312 390.320312 146.972656 C 389.976562 145.664062 391.925781 143.003906 394.765625 139.902344 C 398.113281 139.992188 401.617188 139.464844 405.125 138.671875 C 407.8125 138.03125 410.492188 137.011719 413.046875 136.011719 C 414.074219 135.617188 415.058594 135.1875 416.042969 134.738281 C 416.492188 135.679688 417.5625 136.574219 418.917969 137.292969 C 421.84375 138.824219 426.058594 139.5 428.414062 138.121094 C 430.445312 136.863281 431.226562 133.691406 431.109375 130.714844 C 432.226562 130.699219 433.34375 130.671875 434.457031 130.671875 C 438.226562 130.671875 441.96875 130.769531 445.695312 130.925781 C 442.734375 134.027344 444.597656 137.882812 449.949219 141.300781 C 449.5 141.386719 449.023438 141.484375 448.59375 141.5625 C 442.628906 142.574219 438.507812 141.964844 434.855469 141.386719 Z M 368.917969 142.160156 C 367.378906 142.019531 365.894531 141.464844 364.429688 140.410156 L 364.359375 140.359375 C 369.367188 138.9375 374.453125 137.679688 379.59375 136.554688 C 380.4375 136.757812 381.277344 136.96875 382.121094 137.179688 C 379.160156 139.113281 376.332031 140.84375 373.644531 141.660156 C 372.027344 142.167969 370.445312 142.335938 368.917969 142.160156 Z M 296.859375 170.652344 C 298.808594 169.402344 300.777344 168.183594 302.769531 166.988281 C 301.53125 168.050781 300.382812 168.753906 299.308594 169.386719 C 298.464844 169.859375 297.648438 170.246094 296.859375 170.652344 Z M 655.847656 513.8125 C 676.863281 474.5625 688.785156 429.804688 688.785156 382.289062 C 688.785156 412.292969 683.460938 441.074219 673.726562 467.753906 C 680.71875 443.855469 684.734375 418.6875 685.332031 392.664062 C 684.3125 432.441406 674.367188 469.996094 657.421875 503.40625 C 614.160156 581.183594 530.539062 633.898438 434.457031 633.898438 C 425.628906 633.898438 416.914062 633.453125 408.3125 632.589844 C 405.097656 631.160156 402.109375 629.605469 399.261719 627.910156 C 394.898438 625.0625 390.699219 622.351562 386.355469 619.179688 C 382.027344 616.007812 376.304688 614.691406 370.429688 613.925781 C 367.476562 613.585938 364.382812 613.636719 361.433594 613.691406 C 358.488281 613.742188 355.589844 614.007812 352.910156 614.445312 C 349.007812 615.140625 345.628906 616.042969 343.246094 617.210938 C 334.207031 613.777344 325.429688 609.851562 316.925781 605.460938 C 317.988281 605.476562 319.128906 605.433594 320.378906 605.3125 C 331.007812 604.027344 330.761719 596.414062 322.652344 587 C 314.351562 577.621094 298.546875 566.191406 275.421875 554.125 C 252.21875 541.8125 240.015625 528.355469 232.511719 516.238281 C 230.667969 513.144531 229.066406 510.140625 227.652344 507.171875 C 226.328125 504.140625 225.238281 501.105469 224.199219 498.109375 C 222.039062 492.199219 220.625 486.09375 218.921875 479.789062 C 217.03125 473.585938 213.308594 467.5 207.984375 462.378906 C 203.070312 457.066406 196.824219 452.515625 191.175781 449.09375 C 190.386719 448.609375 189.613281 448.160156 188.839844 447.730469 C 183.171875 426.863281 180.132812 404.921875 180.132812 382.289062 C 180.132812 371.644531 180.800781 361.160156 182.101562 350.875 C 183.882812 346.210938 185.667969 341.152344 187.441406 335.707031 C 191.007812 324.753906 195.3125 316.050781 199.8125 309.066406 C 202.113281 305.625 204.378906 302.535156 206.664062 299.777344 C 209.082031 297.132812 211.453125 294.777344 213.808594 292.660156 C 218.4375 288.359375 223.507812 285.476562 228.261719 282.640625 C 233.1875 279.980469 238.230469 277.765625 243.378906 275.238281 C 253.914062 270.5625 261.488281 257.292969 265.90625 246.527344 C 267.960938 241.027344 268.972656 236.023438 268.382812 233.035156 C 267.785156 230.050781 265.308594 228.75 260.777344 231.183594 C 256.25 233.632812 252.640625 236.3125 249.800781 238.964844 C 247.050781 241.722656 244.988281 244.347656 243.308594 246.492188 C 239.917969 250.714844 238.300781 253.324219 235.429688 251.269531 C 234.023438 250.257812 233.480469 246.035156 233.59375 240.554688 C 233.699219 236.398438 234.171875 231.445312 234.699219 226.535156 C 240.113281 219.753906 245.867188 213.273438 251.929688 207.089844 L 251.839844 207.328125 C 249.890625 212.429688 254.097656 213.574219 258.921875 212.546875 C 263.761719 211.492188 269.261719 208.207031 270.640625 204.34375 C 271.757812 200.960938 269.621094 196.558594 266.625 193.25 C 275.078125 185.898438 284.039062 179.082031 293.441406 172.875 C 292.351562 173.867188 291.324219 175.246094 290.402344 177.394531 C 287.914062 183.140625 291.910156 185.328125 299.054688 183.894531 C 306.300781 182.492188 316.714844 177.710938 329.644531 169.535156 C 342.71875 161.367188 353.148438 159.136719 361.511719 158.8125 C 369.988281 158.734375 376.648438 160.664062 384.082031 162.695312 C 387.808594 163.738281 392.015625 163.246094 396.1875 162.308594 C 398.28125 161.816406 400.363281 161.015625 402.347656 160.242188 C 404.332031 159.488281 406.222656 158.59375 407.925781 157.636719 C 408.214844 157.476562 408.488281 157.308594 408.769531 157.144531 C 410.660156 159.003906 413.222656 160.839844 416.421875 162.570312 C 428.921875 169.570312 450.316406 175.359375 479.695312 179.371094 C 509.269531 183.542969 527.558594 193.160156 540.371094 203.121094 C 553.039062 213.5625 560.585938 224.648438 569.035156 236.960938 C 577.699219 248.871094 595.664062 256.238281 610.714844 259.078125 C 625.414062 262.054688 636.957031 259.972656 629.023438 249.179688 C 625.117188 243.769531 620.582031 240.089844 616.628906 237.023438 C 612.675781 233.957031 608.835938 231.957031 605.664062 230.382812 C 599.382812 227.1875 595.894531 225.480469 597.871094 221.371094 C 599.242188 218.375 609.847656 216.558594 621.777344 215.503906 C 660.046875 259.578125 683.742188 316.65625 685.332031 379.226562 C 684.367188 336.734375 674.289062 296.492188 656.980469 260.375 C 677.242188 296.492188 688.785156 338.050781 688.785156 382.289062 C 688.785156 319.519531 668.007812 261.554688 632.890625 214.742188 C 633.539062 214.707031 634.191406 214.671875 634.832031 214.644531 C 650.8125 213.898438 663.957031 213.230469 651.640625 206.441406 C 648.589844 204.761719 645.042969 203.402344 641.210938 202.277344 C 637.335938 201.199219 633.050781 200.476562 628.707031 199.828125 C 627.855469 199.703125 626.976562 199.609375 626.117188 199.492188 C 626.574219 198.914062 627.003906 198.324219 627.382812 197.730469 C 629.65625 194.046875 630.097656 190.113281 626.742188 190.035156 C 626.742188 190.035156 625.414062 190.21875 622.945312 190.148438 C 620.511719 190.035156 616.785156 189.804688 612.121094 188.945312 C 611.671875 188.867188 611.285156 188.839844 610.917969 188.839844 C 607.015625 184.765625 602.992188 180.804688 598.855469 176.976562 C 608.660156 176.492188 616.058594 175.867188 608.308594 171.601562 C 606.277344 170.484375 603.914062 169.570312 601.367188 168.824219 C 598.785156 168.113281 595.9375 167.628906 593.046875 167.199219 C 591 166.902344 588.910156 166.65625 586.828125 166.417969 C 578.488281 159.515625 569.757812 153.085938 560.648438 147.148438 C 556.84375 144.488281 552.960938 141.921875 549.023438 139.453125 C 548.082031 138.367188 547.125 137.355469 546.160156 136.398438 C 544.804688 133.746094 543.363281 131.375 541.863281 129.265625 C 537.566406 123.621094 532.804688 119.957031 527.523438 118.113281 C 521.375 116.011719 514.644531 116.074219 507.167969 117.664062 C 489 110.015625 469.890625 104.175781 450.054688 100.335938 C 450.183594 98.894531 450.160156 97.421875 449.957031 96.03125 C 449.339844 91.746094 447.144531 88.355469 444.535156 90.480469 C 444.535156 90.480469 441.53125 93.800781 434.84375 97.808594 C 429.117188 97.007812 423.328125 96.367188 417.484375 95.910156 C 423.109375 90.578125 426.058594 86.890625 418.539062 88.269531 C 414.003906 89.007812 408.996094 91.746094 404.035156 94.734375 C 403.8125 94.855469 403.59375 95.015625 403.375 95.144531 C 400.378906 95.058594 397.375 94.996094 394.359375 94.996094 C 376.992188 94.996094 359.964844 96.523438 343.421875 99.441406 C 342.410156 99.117188 341.417969 98.816406 340.445312 98.5625 C 333.511719 96.945312 327.527344 97.304688 322.285156 99.210938 C 317.925781 100.898438 314.070312 103.648438 310.492188 107.273438 C 289.152344 113.6875 268.839844 122.46875 249.871094 133.332031 C 249.476562 132.910156 249.082031 132.515625 248.660156 132.148438 C 245.4375 129.265625 241.578125 128.070312 240.945312 131.382812 C 240.945312 131.382812 240.832031 134.441406 239.347656 139.675781 C 234.109375 142.976562 228.980469 146.445312 223.980469 150.0625 C 224.457031 144.164062 223.847656 141.28125 219.589844 146.367188 C 217.128906 149.316406 215.265625 153.464844 213.597656 157.917969 C 196.402344 171.554688 180.792969 187.101562 167.066406 204.238281 L 166.453125 204.527344 C 163.28125 206.132812 160.574219 207.941406 158.300781 209.945312 C 156.078125 211.984375 154.371094 214.273438 152.976562 216.691406 C 150.824219 220.34375 149.691406 224.5 149.214844 229.066406 C 137.195312 247.800781 127.277344 268.007812 119.765625 289.351562 C 119.046875 289.238281 118.316406 289.15625 117.613281 289.140625 C 113.300781 289.007812 109.679688 290.605469 111.316406 293.546875 C 111.316406 293.546875 112.140625 294.613281 113.328125 296.789062 C 114.019531 298.082031 114.820312 299.75 115.691406 301.8125 C 113.914062 307.699219 112.316406 313.652344 110.910156 319.6875 C 107.042969 314.152344 104.339844 311.640625 104.53125 318.746094 C 104.609375 323.183594 106.0625 328.214844 108.074219 333.378906 C 104.953125 350.425781 103.320312 367.992188 103.320312 385.945312 C 103.320312 388.351562 103.355469 390.738281 103.40625 393.128906 C 102.589844 394.59375 101.859375 396.035156 101.28125 397.429688 C 99.875 400.707031 98.890625 403.835938 98.496094 406.828125 C 98.164062 409.816406 98.269531 412.660156 98.761719 415.410156 C 99.777344 421.082031 102.632812 426.28125 106.859375 431.359375 C 110.101562 452.042969 115.523438 472.007812 122.886719 490.996094 C 121.226562 491.628906 119.597656 492.566406 118.21875 493.648438 C 114.835938 496.316406 113.097656 499.867188 116.253906 501.070312 C 116.253906 501.070312 117.570312 501.347656 119.878906 502.261719 C 122.242188 503.148438 125.390625 504.757812 129.578125 507.121094 L 129.738281 507.199219 C 132.152344 512.460938 134.71875 517.632812 137.433594 522.71875 C 128.253906 519.960938 121.558594 518.195312 127.242188 524.730469 C 131.347656 529.429688 138.234375 533.285156 145.429688 536.769531 C 153.679688 550.347656 163.007812 563.179688 173.304688 575.175781 L 173.304688 575.433594 C 173.621094 579.824219 174.367188 583.660156 175.351562 587.113281 C 175.84375 588.835938 176.414062 590.449219 177.058594 591.960938 C 177.742188 593.429688 178.5 594.78125 179.316406 596.046875 C 180.957031 598.574219 182.847656 600.71875 184.972656 602.527344 C 189.3125 606.050781 194.691406 608.140625 200.839844 609.421875 C 203.503906 609.859375 206.277344 610.195312 209.1875 610.414062 C 223.359375 622.113281 238.664062 632.496094 254.90625 641.375 C 252.597656 643.175781 250.917969 646.609375 250.25 649.824219 C 249.355469 654.074219 250.269531 657.957031 253.441406 656.902344 C 253.441406 656.902344 254.609375 656.304688 256.988281 655.46875 C 259.359375 654.644531 262.917969 653.644531 267.574219 652.90625 C 270.253906 652.476562 271.0625 651.085938 270.730469 649.390625 C 276.84375 652.273438 283.082031 654.941406 289.417969 657.394531 C 288.179688 657.9375 286.9375 658.480469 285.71875 659.007812 C 275.929688 663.039062 267.882812 666.378906 277.089844 667.925781 C 285.332031 669.242188 296.453125 666.167969 306.582031 663.417969 C 317.566406 666.886719 328.828125 669.707031 340.320312 671.867188 C 341.875 673.824219 343.429688 675.589844 344.996094 677.144531 C 348.070312 680.289062 351.082031 682.890625 354.0625 684.902344 C 357.960938 687.332031 361.738281 688.992188 365.4375 689.820312 C 365.992188 690.371094 366.527344 690.898438 367.019531 691.355469 C 368.382812 692.570312 369.332031 693.410156 369.332031 693.410156 C 376.597656 693.65625 384.625 691.410156 389.414062 688.421875 C 393.386719 686.050781 395.109375 683.628906 392.480469 682.660156 C 395.039062 680.949219 397.613281 678.992188 400.246094 676.820312 C 406.203125 676.707031 412.117188 676.40625 417.976562 675.941406 C 419.058594 676.804688 420.128906 677.613281 421.183594 678.332031 C 427.640625 682.355469 433.800781 684.46875 439.835938 684.277344 C 451.863281 684.066406 463.257812 676.664062 476.066406 665.253906 C 555.085938 642.191406 620.195312 586.535156 655.847656 513.8125 "/>
<g clip-path="url(#clip8)" clip-rule="nonzero">
<path style=" stroke:none;fill-rule:nonzero;fill:rgb(100%,0%,0%);fill-opacity:1;" d="M 325.464844 688.546875 C 315.546875 687.746094 303.238281 690.546875 297.703125 688.203125 C 294.960938 687.097656 296.917969 689.777344 299.660156 692.753906 C 301.03125 694.238281 302.585938 695.816406 303.824219 696.984375 C 305.089844 698.101562 305.96875 698.882812 305.96875 698.882812 C 312.707031 699.121094 320.15625 697.03125 324.601562 694.261719 C 329.023438 691.621094 330.453125 688.886719 325.464844 688.546875 "/>
</g>
<path style=" stroke:none;fill-rule:nonzero;fill:rgb(100%,0%,0%);fill-opacity:1;" d="M 138.910156 561.933594 C 134.9375 558.921875 131.398438 556.128906 129.957031 553.546875 C 128.632812 550.894531 128.296875 554.273438 128.585938 558.246094 C 128.832031 562.25 129.507812 566.972656 129.507812 566.972656 C 134.289062 571.636719 141.78125 574.5 146.71875 575.40625 C 151.738281 576.277344 154.574219 575.117188 151.070312 571.578125 C 147.609375 567.984375 142.835938 565 138.910156 561.933594 "/>
<path style=" stroke:none;fill-rule:nonzero;fill:rgb(100%,0%,0%);fill-opacity:1;" d="M 88.066406 342.566406 C 88.769531 339.683594 86.328125 342.054688 84 345.289062 C 81.628906 348.503906 79.105469 352.570312 79.105469 352.570312 C 79.730469 359.207031 83.675781 366.21875 86.890625 370.082031 C 90.183594 373.964844 93.101562 374.902344 92.679688 369.941406 C 91.625 360.035156 86.976562 348.449219 88.066406 342.566406 "/>
<path style=" stroke:none;fill-rule:nonzero;fill:rgb(100%,0%,0%);fill-opacity:1;" d="M 177.601562 177.949219 C 180.371094 173.75 182.742188 168.808594 185 164.320312 C 186.117188 162.078125 187.179688 159.9375 188.285156 158.160156 C 189.425781 156.421875 190.570312 155 191.738281 154.085938 C 194.082031 152.285156 190.773438 152.628906 186.808594 153.488281 C 184.804688 153.902344 182.714844 154.515625 181.125 155.027344 C 179.507812 155.554688 178.382812 155.921875 178.382812 155.921875 C 176.582031 158.742188 175.203125 162.042969 174.28125 165.265625 C 173.421875 168.542969 173.058594 171.777344 173.078125 174.332031 C 173.128906 179.460938 174.773438 182.058594 177.601562 177.949219 "/>
<path style=" stroke:none;fill-rule:nonzero;fill:rgb(100%,0%,0%);fill-opacity:1;" d="M 366.089844 85.371094 C 370.921875 84.054688 375.929688 81.8125 380.523438 79.714844 C 385.109375 77.648438 389.308594 76.226562 392.269531 76.269531 C 395.214844 76.367188 392.464844 74.523438 388.878906 72.671875 C 387.085938 71.75 385.09375 70.816406 383.527344 70.125 C 381.980469 69.394531 380.875 69.027344 380.875 69.027344 C 374.46875 71.132812 368.199219 75.675781 364.957031 79.707031 C 361.703125 83.71875 361.273438 86.777344 366.089844 85.371094 "/>
<path style=" stroke:none;fill-rule:nonzero;fill:rgb(100%,0%,0%);fill-opacity:1;" d="M 569.996094 135.625 C 574.511719 137.769531 579.835938 139.207031 584.703125 140.5625 C 589.367188 141.992188 593.476562 143.449219 595.746094 145.339844 C 589.945312 146.964844 587.960938 149.703125 594.058594 152.367188 C 600.847656 155.589844 608.851562 157.757812 616.171875 159.785156 C 623.332031 161.992188 629.675781 164.238281 633.03125 167.171875 C 636.359375 170.117188 634.945312 165.355469 632.582031 159.777344 C 630.238281 154.210938 626.898438 147.816406 626.898438 147.816406 C 617.488281 144.046875 605.796875 143.320312 598.230469 144.75 C 597.863281 144.820312 597.511719 144.898438 597.160156 144.980469 C 596.976562 143.953125 596.378906 142.316406 595.632812 140.550781 C 594.066406 136.847656 591.84375 132.59375 591.84375 132.59375 C 585.589844 130.082031 577.8125 129.601562 572.769531 130.558594 C 567.691406 131.542969 565.410156 133.613281 569.996094 135.625 "/>
<path style=" stroke:none;fill-rule:nonzero;fill:rgb(100%,0%,0%);fill-opacity:1;" d="M 652.367188 242.644531 C 654.976562 248.378906 659.933594 255.054688 665.398438 255.730469 C 670.78125 256.46875 676.898438 251.257812 680.308594 245.71875 C 683.734375 240.183594 684.390625 234.265625 679.347656 234.160156 C 679.347656 234.160156 677.355469 234.441406 673.636719 234.328125 C 669.984375 234.160156 664.386719 233.808594 657.375 232.515625 C 650.382812 231.242188 649.910156 236.8125 652.367188 242.644531 "/>
<g clip-path="url(#clip9)" clip-rule="nonzero">
<path style=" stroke:none;fill-rule:nonzero;fill:rgb(100%,100%,100%);fill-opacity:1;" d="M 459.351562 402.101562 L 360.453125 469.390625 C 357.535156 471.378906 354.136719 472.347656 350.75 472.292969 C 348.117188 472.234375 345.519531 471.5625 343.117188 470.273438 C 337.632812 467.300781 334.261719 461.523438 334.378906 455.273438 L 337.019531 316.957031 C 337.148438 310.722656 340.734375 305.0625 346.332031 302.300781 C 351.929688 299.542969 358.601562 300.140625 363.617188 303.84375 L 459.875 374.878906 C 464.230469 378.082031 466.757812 383.214844 466.65625 388.625 C 466.554688 394.035156 463.824219 399.0625 459.351562 402.101562 Z M 384.058594 194.292969 C 279.261719 194.292969 194.289062 279.25 194.289062 384.054688 C 194.289062 488.863281 279.261719 573.816406 384.058594 573.816406 C 488.867188 573.816406 573.824219 488.863281 573.824219 384.054688 C 573.824219 279.25 488.867188 194.292969 384.058594 194.292969 "/>
</g>
</g>
</svg>
