<?xml version="1.0" encoding="UTF-8"?>
<svg xmlns="http://www.w3.org/2000/svg" xmlns:xlink="http://www.w3.org/1999/xlink" width="768pt" height="767.999994pt" viewBox="0 0 768 767.999994" version="1.2">
<defs>
<clipPath id="clip1">
  <path d="M 113.789062 212.078125 L 674.519531 212.078125 L 674.519531 264 L 113.789062 264 Z M 113.789062 212.078125 "/>
</clipPath>
<clipPath id="clip2">
  <path d="M 113.789062 263 L 674.519531 263 L 674.519531 315 L 113.789062 315 Z M 113.789062 263 "/>
</clipPath>
<clipPath id="clip3">
  <path d="M 113.789062 314 L 674.519531 314 L 674.519531 366 L 113.789062 366 Z M 113.789062 314 "/>
</clipPath>
<clipPath id="clip4">
  <path d="M 113.789062 365 L 674.519531 365 L 674.519531 417 L 113.789062 417 Z M 113.789062 365 "/>
</clipPath>
<clipPath id="clip5">
  <path d="M 113.789062 416 L 674.519531 416 L 674.519531 468 L 113.789062 468 Z M 113.789062 416 "/>
</clipPath>
<clipPath id="clip6">
  <path d="M 113.789062 467 L 674.519531 467 L 674.519531 518 L 113.789062 518 Z M 113.789062 467 "/>
</clipPath>
<clipPath id="clip7">
  <path d="M 113.789062 517 L 674.519531 517 L 674.519531 568.972656 L 113.789062 568.972656 Z M 113.789062 517 "/>
</clipPath>
<clipPath id="clip8">
  <path d="M 9 4 L 767 4 L 767 764.644531 L 9 764.644531 Z M 9 4 "/>
</clipPath>
</defs>
<g id="surface1">
<g clip-path="url(#clip1)" clip-rule="nonzero">
<path style=" stroke:none;fill-rule:nonzero;fill:rgb(95.689392%,26.269531%,21.179199%);fill-opacity:1;" d="M 674.46875 263.0625 L 113.84375 263.0625 L 113.84375 212.078125 L 674.46875 212.078125 Z M 674.46875 263.0625 "/>
<path style=" stroke:none;fill-rule:nonzero;fill:rgb(95.689392%,26.269531%,21.179199%);fill-opacity:1;" d="M 674.46875 263.0625 L 113.84375 263.0625 L 113.84375 212.078125 L 674.46875 212.078125 Z M 674.46875 263.0625 "/>
</g>
<g clip-path="url(#clip2)" clip-rule="nonzero">
<path style=" stroke:none;fill-rule:nonzero;fill:rgb(100%,59.609985%,0%);fill-opacity:1;" d="M 674.46875 314.046875 L 113.84375 314.046875 L 113.84375 263.0625 L 674.46875 263.0625 Z M 674.46875 314.046875 "/>
<path style=" stroke:none;fill-rule:nonzero;fill:rgb(100%,59.609985%,0%);fill-opacity:1;" d="M 674.46875 314.046875 L 113.84375 314.046875 L 113.84375 263.0625 L 674.46875 263.0625 Z M 674.46875 314.046875 "/>
</g>
<g clip-path="url(#clip3)" clip-rule="nonzero">
<path style=" stroke:none;fill-rule:nonzero;fill:rgb(100%,75.689697%,2.749634%);fill-opacity:1;" d="M 674.46875 365.035156 L 113.84375 365.035156 L 113.84375 314.046875 L 674.46875 314.046875 Z M 674.46875 365.035156 "/>
<path style=" stroke:none;fill-rule:nonzero;fill:rgb(100%,75.689697%,2.749634%);fill-opacity:1;" d="M 674.46875 365.035156 L 113.84375 365.035156 L 113.84375 314.046875 L 674.46875 314.046875 Z M 674.46875 365.035156 "/>
</g>
<g clip-path="url(#clip4)" clip-rule="nonzero">
<path style=" stroke:none;fill-rule:nonzero;fill:rgb(54.508972%,76.469421%,29.019165%);fill-opacity:1;" d="M 674.46875 416.019531 L 113.84375 416.019531 L 113.84375 365.035156 L 674.46875 365.035156 Z M 674.46875 416.019531 "/>
<path style=" stroke:none;fill-rule:nonzero;fill:rgb(29.798889%,68.629456%,31.369019%);fill-opacity:1;" d="M 674.46875 416.019531 L 113.84375 416.019531 L 113.84375 365.035156 L 674.46875 365.035156 Z M 674.46875 416.019531 "/>
</g>
<g clip-path="url(#clip5)" clip-rule="nonzero">
<path style=" stroke:none;fill-rule:nonzero;fill:rgb(12.939453%,58.81958%,95.289612%);fill-opacity:1;" d="M 674.46875 467.003906 L 113.84375 467.003906 L 113.84375 416.019531 L 674.46875 416.019531 Z M 674.46875 467.003906 "/>
</g>
<g clip-path="url(#clip6)" clip-rule="nonzero">
<path style=" stroke:none;fill-rule:nonzero;fill:rgb(24.708557%,31.759644%,70.979309%);fill-opacity:1;" d="M 674.46875 517.988281 L 113.84375 517.988281 L 113.84375 467.003906 L 674.46875 467.003906 Z M 674.46875 517.988281 "/>
</g>
<g clip-path="url(#clip7)" clip-rule="nonzero">
<path style=" stroke:none;fill-rule:nonzero;fill:rgb(61.178589%,15.289307%,69.018555%);fill-opacity:1;" d="M 674.46875 568.972656 L 113.84375 568.972656 L 113.84375 517.988281 L 674.46875 517.988281 Z M 674.46875 568.972656 "/>
</g>
<path style=" stroke:none;fill-rule:nonzero;fill:rgb(100%,100%,100%);fill-opacity:1;" d="M 536.375 420.519531 L 336.230469 556.695312 C 330.328125 560.714844 323.449219 562.675781 316.59375 562.566406 C 311.265625 562.445312 306.007812 561.089844 301.152344 558.472656 C 290.054688 552.460938 283.226562 540.769531 283.46875 528.121094 L 288.804688 248.210938 C 289.066406 235.59375 296.328125 224.140625 307.65625 218.550781 C 318.988281 212.972656 332.488281 214.179688 342.632812 221.667969 L 537.433594 365.425781 C 546.25 371.910156 551.367188 382.292969 551.15625 393.242188 C 550.953125 404.191406 545.425781 414.367188 536.375 420.519531 Z M 384.003906 -0.0234375 C 171.921875 -0.0234375 -0.0351562 171.902344 -0.0351562 383.992188 C -0.0351562 596.09375 171.921875 768.023438 384.003906 768.023438 C 596.105469 768.023438 768.03125 596.09375 768.03125 383.992188 C 768.03125 171.902344 596.105469 -0.0234375 384.003906 -0.0234375 "/>
<path style=" stroke:none;fill-rule:nonzero;fill:rgb(100%,100%,100%);fill-opacity:1;" d="M 762.59375 383.761719 C 761.726562 357.265625 757.972656 333.324219 752.984375 313.003906 C 755.347656 318.304688 756.25 315.789062 755.40625 306.046875 C 754.449219 296.351562 751.699219 279.363281 744.457031 256.695312 C 737.21875 234.082031 725.375 205.695312 705.621094 175.105469 C 685.941406 144.59375 658.152344 111.871094 620.453125 83.035156 C 582.867188 54.179688 538.3125 32.023438 491.558594 19.636719 C 444.804688 7.054688 396.285156 4.429688 351.269531 9.917969 C 306.136719 15.390625 264.640625 29.210938 230.128906 46.960938 C 195.488281 64.652344 167.820312 86.113281 147.160156 105.992188 C 150.535156 101.261719 147.9375 101.792969 139.929688 107.398438 C 132.019531 113.085938 118.765625 124.027344 102.777344 141.636719 C 86.851562 159.21875 68.199219 183.640625 51.585938 216.0625 C 34.984375 248.367188 20.605469 288.902344 14.648438 335.996094 C 8.71875 382.992188 11.859375 432.46875 24.53125 479.152344 C 37.0625 525.859375 59.113281 569.265625 86.621094 605.335938 C 114.066406 641.550781 146.824219 670.390625 179.464844 691.347656 C 212.117188 712.445312 244.570312 725.65625 272.160156 733.574219 C 266.398438 732.941406 268.117188 735.054688 277.023438 739.09375 C 285.921875 743.09375 302.066406 749.046875 325.351562 754.007812 C 348.605469 758.878906 379.085938 762.664062 415.421875 760.75 C 451.667969 758.875 493.980469 751.050781 537.761719 732.582031 C 573.238281 717.617188 607.097656 696.539062 636.707031 670.722656 C 666.367188 644.949219 691.640625 614.394531 711.1875 581.722656 C 750.820312 516.246094 765.054688 442.894531 762.683594 383.761719 L 710.535156 383.761719 C 711.757812 425.46875 704.921875 463.058594 695.746094 493 C 694.410156 487.941406 687.226562 508.269531 665.417969 543.546875 C 654.332031 561.019531 639.085938 582.019531 617.753906 603.488281 C 596.457031 624.890625 568.949219 646.765625 534.578125 664.457031 C 500.246094 682.140625 461.855469 693.84375 422.808594 698.207031 C 383.722656 702.558594 344.183594 699.816406 307.925781 690.808594 C 271.578125 681.949219 238.542969 666.933594 210.714844 649.347656 C 182.851562 631.714844 160.15625 611.605469 142.652344 592.734375 C 147.703125 594.117188 133.6875 577.683594 114.039062 541.15625 C 104.457031 522.808594 93.914062 499.132812 86.050781 469.957031 C 78.203125 440.84375 73.304688 406.105469 75.207031 367.425781 C 77.167969 328.835938 86.195312 289.753906 102.015625 253.828125 C 117.777344 217.878906 140.171875 185.253906 166.183594 158.359375 C 192.1875 131.40625 221.703125 110.28125 250.867188 95.027344 C 280.054688 79.699219 308.851562 70.328125 333.941406 64.640625 C 332.0625 66.277344 336.464844 66.539062 346.480469 66.191406 C 356.5 65.863281 372.203125 65.027344 392.96875 65.9375 C 413.691406 66.882812 439.496094 69.605469 468.699219 77.441406 C 497.835938 85.257812 530.402344 98.355469 562.777344 119.492188 C 607.507812 148.464844 646.050781 190.140625 671.402344 237.363281 C 697.132812 284.484375 709.246094 336.503906 710.46875 383.761719 L 762.59375 383.761719 "/>
<g clip-path="url(#clip8)" clip-rule="nonzero">
<path style=" stroke:none;fill-rule:nonzero;fill:rgb(22.749329%,22.749329%,22.749329%);fill-opacity:1;" d="M 700.90625 189.78125 C 709.1875 200.925781 718.589844 215.433594 727.6875 233.25 C 730.992188 236.570312 726.402344 217.933594 707.484375 184.957031 C 688.515625 152.503906 653.101562 105.285156 592.148438 66.328125 C 554.363281 42.175781 510.433594 24.632812 465.683594 16.101562 C 420.898438 7.488281 375.757812 7.816406 335.246094 14.78125 C 294.648438 21.652344 258.957031 35.171875 230.867188 49.984375 C 202.703125 64.835938 181.960938 80.722656 168.722656 92.558594 C 108.425781 146.207031 68.289062 218.707031 54.957031 294.070312 C 41.3125 369.394531 53.789062 446.9375 87.6875 510.808594 C 95.210938 524.886719 99.796875 530.308594 100.386719 528.941406 C 101.089844 527.519531 97.878906 519.273438 92.828125 504.515625 C 87.8125 489.769531 81.066406 468.347656 76.511719 440.539062 C 72.105469 412.808594 69.941406 378.390625 75.308594 339.792969 C 82.867188 281.898438 108.308594 224.078125 144.277344 179.597656 C 179.964844 134.671875 224.839844 103.71875 262.558594 85.816406 C 266.292969 82.898438 274.738281 77.742188 289.195312 71.625 C 356.148438 43.1875 435.015625 37.246094 509.292969 57.65625 C 583.597656 77.824219 652.683594 124.46875 700.90625 189.78125 Z M 66.65625 212.792969 C 72.160156 200.039062 80.03125 184.652344 90.898438 167.871094 C 92.121094 163.355469 78.292969 176.644531 59.183594 209.515625 C 40.542969 242.128906 17.359375 296.617188 14.5 368.839844 C 12.609375 413.546875 19.402344 460.320312 34.445312 503.300781 C 49.417969 546.335938 72.417969 585.328125 98.886719 616.726562 C 125.28125 648.273438 154.796875 672.359375 181.714844 689.195312 C 208.652344 706.140625 232.828125 716.109375 249.707031 721.65625 C 326.484375 746.945312 409.3125 744.804688 481.25 718.730469 C 553.390625 692.890625 613.980469 642.945312 652.3125 581.546875 C 660.78125 568.003906 663.140625 561.296875 661.671875 561.480469 C 660.109375 561.59375 654.535156 568.472656 644.300781 580.265625 C 634.007812 591.972656 618.886719 608.628906 597.078125 626.542969 C 575.316406 644.378906 546.714844 663.507812 510.640625 678.222656 C 456.773438 700.644531 393.824219 707.679688 337.277344 699.03125 C 280.496094 690.929688 231.300781 667.496094 196.859375 643.851562 C 192.472656 642.066406 183.78125 637.332031 171.195312 627.914062 C 112.882812 584.324219 68.058594 519.308594 48.574219 444.761719 C 28.882812 370.441406 34.054688 287.253906 66.65625 212.792969 Z M 707.867188 383.765625 C 706.742188 331.125 691.832031 274.824219 661.925781 225.519531 C 632.390625 176.074219 588.179688 134.421875 538.015625 107.742188 C 478.78125 76.054688 420.300781 68.476562 375.332031 69.632812 C 330.03125 70.878906 297.578125 80.074219 279.09375 84.980469 C 225.234375 106.527344 170.816406 147.0625 132.992188 202.84375 C 94.738281 258.207031 74.761719 327.800781 77.53125 394.777344 C 79.832031 461.96875 102.496094 516.347656 126.109375 554.507812 C 149.992188 592.96875 174.347656 616.421875 187.84375 629.980469 C 233.601562 665.769531 295.769531 692.632812 363.050781 697.070312 C 430.265625 702.210938 500.613281 684.765625 557.03125 648.730469 C 613.90625 612.925781 649.714844 565.898438 670.949219 526.433594 C 692.296875 486.546875 700.28125 453.765625 705.207031 435.292969 C 707.410156 418.792969 708.328125 401.472656 707.925781 383.769531 L 713.324219 383.769531 C 713.753906 396.761719 713.449219 409.097656 712.65625 420.519531 C 713.410156 425.214844 713.597656 435.097656 711.835938 450.695312 C 703.523438 522.960938 669.402344 594.210938 614.796875 648.535156 C 560.558594 703.101562 485.753906 740.195312 405.039062 749.363281 C 391.25 751 374.007812 751.96875 354.023438 751.050781 C 349.511719 752.222656 367.96875 757.515625 405.949219 757.46875 C 443.484375 757.1875 502.285156 750.039062 566.292969 716.21875 C 599.03125 698.925781 629.96875 675.953125 656.371094 648.964844 C 682.800781 622.007812 704.660156 591.136719 720.820312 559.367188 C 753.71875 495.613281 761.808594 429.628906 759.367188 383.769531 L 765.53125 383.769531 C 766.457031 418.082031 762.578125 455.117188 752.230469 492.183594 C 741.964844 529.238281 725.234375 566.230469 702.296875 600.054688 C 656.878906 668.066406 585.519531 721.878906 507.675781 746.429688 C 468.734375 759.023438 430.847656 764.054688 396.71875 764.300781 C 362.53125 764.613281 331.878906 760.09375 305.824219 753.648438 C 253.539062 740.429688 220.03125 720.289062 203.476562 708.785156 C 142.742188 676.472656 82.980469 619.796875 47.054688 545.644531 C 10.425781 471.957031 0.0507812 382.871094 17.734375 303.046875 C 35.136719 222.660156 75.703125 163.027344 112.898438 124.976562 C 150.558594 86.507812 184.710938 67.605469 202.964844 59.046875 C 232.316406 40.988281 266.492188 25.871094 303.914062 16.335938 C 341.3125 6.738281 381.804688 2.863281 422.691406 5.78125 C 463.601562 8.648438 504.925781 18.496094 543.328125 35.101562 C 581.792969 51.574219 617.214844 74.746094 647.390625 102.25 C 707.503906 157.160156 738.992188 221.359375 753.429688 272.488281 C 767.949219 324.179688 767.242188 363.285156 765.582031 383.765625 L 759.242188 383.765625 C 758.332031 365.398438 756.144531 350 753.757812 338.394531 C 737.78125 259.210938 694.878906 188.289062 636.429688 138.914062 C 578.164062 89.15625 504.839844 61.058594 432.5 58.378906 C 416.535156 57.832031 409.539062 59.0625 410.425781 60.261719 C 411.296875 61.582031 420.054688 62.949219 435.371094 65.988281 C 450.667969 69.023438 472.601562 73.921875 498.945312 83.941406 C 525.214844 93.980469 555.933594 109.414062 586.644531 133.460938 C 626.039062 164.136719 659.449219 205.640625 680.789062 250.550781 C 702.488281 295.390625 712 342.902344 713.242188 383.765625 L 707.867188 383.765625 "/>
</g>
</g>
</svg>
