<?xml version="1.0" encoding="UTF-8"?>
<svg xmlns="http://www.w3.org/2000/svg" xmlns:xlink="http://www.w3.org/1999/xlink" width="768pt" height="767.999994pt" viewBox="0 0 768 767.999994" version="1.2">
<defs>
<clipPath id="clip1">
  <path d="M 126.507812 221.976562 L 641.441406 221.976562 L 641.441406 269 L 126.507812 269 Z M 126.507812 221.976562 "/>
</clipPath>
<clipPath id="clip2">
  <path d="M 126.507812 268 L 641.441406 268 L 641.441406 316 L 126.507812 316 Z M 126.507812 268 "/>
</clipPath>
<clipPath id="clip3">
  <path d="M 126.507812 315 L 641.441406 315 L 641.441406 363 L 126.507812 363 Z M 126.507812 315 "/>
</clipPath>
<clipPath id="clip4">
  <path d="M 126.507812 362 L 641.441406 362 L 641.441406 410 L 126.507812 410 Z M 126.507812 362 "/>
</clipPath>
<clipPath id="clip5">
  <path d="M 126.507812 409 L 641.441406 409 L 641.441406 456 L 126.507812 456 Z M 126.507812 409 "/>
</clipPath>
<clipPath id="clip6">
  <path d="M 126.507812 455 L 641.441406 455 L 641.441406 503 L 126.507812 503 Z M 126.507812 455 "/>
</clipPath>
<clipPath id="clip7">
  <path d="M 126.507812 502 L 641.441406 502 L 641.441406 549.445312 L 126.507812 549.445312 Z M 126.507812 502 "/>
</clipPath>
<clipPath id="clip8">
  <path d="M 25.664062 28.503906 L 736.664062 28.503906 L 736.664062 739.503906 L 25.664062 739.503906 Z M 25.664062 28.503906 "/>
</clipPath>
<clipPath id="clip9">
  <path d="M 126.507812 126.507812 L 641.757812 126.507812 L 641.757812 641.757812 L 126.507812 641.757812 Z M 126.507812 126.507812 "/>
</clipPath>
</defs>
<g id="surface1">
<g clip-path="url(#clip1)" clip-rule="nonzero">
<path style=" stroke:none;fill-rule:nonzero;fill:rgb(95.689392%,26.269531%,21.179199%);fill-opacity:1;" d="M 641.394531 268.757812 L 126.550781 268.757812 L 126.550781 221.976562 L 641.394531 221.976562 Z M 641.394531 268.757812 "/>
<path style=" stroke:none;fill-rule:nonzero;fill:rgb(95.689392%,26.269531%,21.179199%);fill-opacity:1;" d="M 641.394531 268.757812 L 126.550781 268.757812 L 126.550781 221.976562 L 641.394531 221.976562 Z M 641.394531 268.757812 "/>
</g>
<g clip-path="url(#clip2)" clip-rule="nonzero">
<path style=" stroke:none;fill-rule:nonzero;fill:rgb(100%,59.609985%,0%);fill-opacity:1;" d="M 641.394531 315.539062 L 126.550781 315.539062 L 126.550781 268.757812 L 641.394531 268.757812 Z M 641.394531 315.539062 "/>
<path style=" stroke:none;fill-rule:nonzero;fill:rgb(100%,59.609985%,0%);fill-opacity:1;" d="M 641.394531 315.539062 L 126.550781 315.539062 L 126.550781 268.757812 L 641.394531 268.757812 Z M 641.394531 315.539062 "/>
</g>
<g clip-path="url(#clip3)" clip-rule="nonzero">
<path style=" stroke:none;fill-rule:nonzero;fill:rgb(100%,75.689697%,2.749634%);fill-opacity:1;" d="M 641.394531 362.320312 L 126.550781 362.320312 L 126.550781 315.539062 L 641.394531 315.539062 Z M 641.394531 362.320312 "/>
<path style=" stroke:none;fill-rule:nonzero;fill:rgb(100%,75.689697%,2.749634%);fill-opacity:1;" d="M 641.394531 362.320312 L 126.550781 362.320312 L 126.550781 315.539062 L 641.394531 315.539062 Z M 641.394531 362.320312 "/>
</g>
<g clip-path="url(#clip4)" clip-rule="nonzero">
<path style=" stroke:none;fill-rule:nonzero;fill:rgb(54.508972%,76.469421%,29.019165%);fill-opacity:1;" d="M 641.394531 409.101562 L 126.550781 409.101562 L 126.550781 362.320312 L 641.394531 362.320312 Z M 641.394531 409.101562 "/>
<path style=" stroke:none;fill-rule:nonzero;fill:rgb(29.798889%,68.629456%,31.369019%);fill-opacity:1;" d="M 641.394531 409.101562 L 126.550781 409.101562 L 126.550781 362.320312 L 641.394531 362.320312 Z M 641.394531 409.101562 "/>
</g>
<g clip-path="url(#clip5)" clip-rule="nonzero">
<path style=" stroke:none;fill-rule:nonzero;fill:rgb(12.939453%,58.81958%,95.289612%);fill-opacity:1;" d="M 641.394531 455.882812 L 126.550781 455.882812 L 126.550781 409.101562 L 641.394531 409.101562 Z M 641.394531 455.882812 "/>
</g>
<g clip-path="url(#clip6)" clip-rule="nonzero">
<path style=" stroke:none;fill-rule:nonzero;fill:rgb(24.708557%,31.759644%,70.979309%);fill-opacity:1;" d="M 641.394531 502.664062 L 126.550781 502.664062 L 126.550781 455.882812 L 641.394531 455.882812 Z M 641.394531 502.664062 "/>
</g>
<g clip-path="url(#clip7)" clip-rule="nonzero">
<path style=" stroke:none;fill-rule:nonzero;fill:rgb(61.178589%,15.289307%,69.018555%);fill-opacity:1;" d="M 641.394531 549.445312 L 126.550781 549.445312 L 126.550781 502.664062 L 641.394531 502.664062 Z M 641.394531 549.445312 "/>
</g>
<g clip-path="url(#clip8)" clip-rule="nonzero">
<path style=" stroke:none;fill-rule:nonzero;fill:rgb(100%,100%,100%);fill-opacity:1;" d="M 522.234375 417.8125 L 336.941406 543.878906 C 331.476562 547.601562 325.109375 549.417969 318.761719 549.316406 C 313.828125 549.203125 308.960938 547.949219 304.464844 545.527344 C 294.191406 539.960938 287.871094 529.136719 288.09375 517.429688 L 293.035156 258.289062 C 293.277344 246.609375 300 236.007812 310.488281 230.832031 C 320.976562 225.667969 333.476562 226.785156 342.867188 233.71875 L 523.210938 366.804688 C 531.371094 372.808594 536.109375 382.421875 535.914062 392.558594 C 535.730469 402.695312 530.609375 412.113281 522.234375 417.8125 Z M 381.167969 28.480469 C 184.828125 28.480469 25.632812 187.648438 25.632812 383.996094 C 25.632812 580.355469 184.828125 739.523438 381.167969 739.523438 C 577.527344 739.523438 736.695312 580.355469 736.695312 383.996094 C 736.695312 187.648438 577.527344 28.480469 381.167969 28.480469 "/>
</g>
<g clip-path="url(#clip9)" clip-rule="nonzero">
<path style=" stroke:none;fill-rule:nonzero;fill:rgb(0%,0%,0%);fill-opacity:1;" d="M 384.132812 641.757812 C 242.078125 641.757812 126.507812 526.1875 126.507812 384.132812 C 126.507812 242.078125 242.078125 126.507812 384.132812 126.507812 C 526.1875 126.507812 641.757812 242.078125 641.757812 384.132812 C 641.757812 526.1875 526.1875 641.757812 384.132812 641.757812 Z M 384.132812 131.070312 C 244.59375 131.070312 131.070312 244.59375 131.070312 384.132812 C 131.070312 523.667969 244.59375 637.1875 384.132812 637.1875 C 523.667969 637.1875 637.1875 523.667969 637.1875 384.132812 C 637.1875 244.59375 523.667969 131.070312 384.132812 131.070312 Z M 384.132812 131.070312 "/>
</g>
</g>
</svg>
